<svg width="144" height="25" viewBox="0 0 144 25" fill="none" xmlns="http://www.w3.org/2000/svg">
<path d="M0.933333 24V1.6H13.6533C19.76 1.6 23.3867 4.32 23.3867 10.3467C23.3867 16.3733 19.76 19.0933 13.68 19.0933H8.32V24H0.933333ZM8.32 12.96H13.0133C14.8 12.96 15.9467 12.08 15.9467 10.3467C15.9467 8.61333 14.8 7.73333 13.04 7.73333H8.32V12.96ZM40.5833 24L39.5967 21.04H29.9967L29.01 24H21.3833L29.6233 1.6H39.97L48.21 24H40.5833ZM31.81 15.5733H37.7833L35.4367 8.53333H34.1567L31.81 15.5733ZM59.3387 24.7467C51.7921 24.7467 46.7521 19.9733 46.7521 12.8C46.7521 5.62667 51.7921 0.853333 59.3387 0.853333C64.8054 0.853333 70.4054 3.25333 71.1521 10.8267H64.1121C63.4988 8.37333 61.7654 7.22667 59.3387 7.22667C56.4054 7.22667 54.0854 9.41333 54.0854 12.8C54.0854 16.1867 56.4054 18.3733 59.3387 18.3733C61.7654 18.3733 63.4988 17.2267 64.1121 14.72H71.1521C70.4054 22.3467 64.8588 24.7467 59.3387 24.7467ZM97.0475 24H89.5008L83.5275 16.0267H83.0475L79.9808 19.3067V24H72.6208V1.6H79.9808V10.48H80.4608L88.5408 1.6H96.7542L87.6608 11.5733L97.0475 24ZM107.569 24.7467C99.8354 24.72 96.1821 22.32 96.3688 16.5067H103.009C103.089 18.0267 104.369 18.96 107.569 18.9867C110.395 19.0133 111.702 18.2133 111.702 17.1733C111.702 16.4533 111.302 15.7067 109.115 15.3867L106.235 14.9333C101.995 14.24 96.9021 13.7333 96.9021 8C96.9021 3.57333 100.502 0.853333 107.622 0.853333C114.049 0.853333 118.529 2.64 118.395 9.04H111.809C111.542 7.54667 110.289 6.61333 107.462 6.61333C105.009 6.61333 103.995 7.36 103.995 8.37333C103.995 9.01333 104.395 9.78667 106.102 10.0533L108.475 10.4533C112.929 11.2 119.035 11.3333 119.035 17.4667C119.035 22.3467 115.249 24.7733 107.569 24.7467ZM143.332 1.6L134.158 17.04V24H126.772V17.0133L117.625 1.6H125.385L130.185 10.0267H130.772L135.572 1.6H143.332Z" fill="#00528C"/>
</svg>
