<svg width="321" height="55" viewBox="0 0 321 55" fill="none" xmlns="http://www.w3.org/2000/svg">
<path d="M0.1 53V2.6H28.72C42.46 2.6 50.62 8.72 50.62 22.28C50.62 35.84 42.46 41.96 28.78 41.96H16.72V53H0.1ZM16.72 28.16H27.28C31.3 28.16 33.88 26.18 33.88 22.28C33.88 18.38 31.3 16.4 27.34 16.4H16.72V28.16ZM89.3125 53L87.0925 46.34H65.4925L63.2725 53H46.1125L64.6525 2.6H87.9325L106.473 53H89.3125ZM69.5725 34.04H83.0125L77.7325 18.2H74.8525L69.5725 34.04ZM131.512 54.68C114.532 54.68 103.192 43.94 103.192 27.8C103.192 11.66 114.532 0.919998 131.512 0.919998C143.812 0.919998 156.412 6.32 158.092 23.36H142.252C140.872 17.84 136.972 15.26 131.512 15.26C124.912 15.26 119.692 20.18 119.692 27.8C119.692 35.42 124.912 40.34 131.512 40.34C136.972 40.34 140.872 37.76 142.252 32.12H158.092C156.412 49.28 143.932 54.68 131.512 54.68ZM216.357 53H199.377L185.937 35.06H184.857L177.957 42.44V53H161.397V2.6H177.957V22.58H179.037L197.217 2.6H215.697L195.237 25.04L216.357 53ZM240.03 54.68C222.63 54.62 214.41 49.22 214.83 36.14H229.77C229.95 39.56 232.83 41.66 240.03 41.72C246.39 41.78 249.33 39.98 249.33 37.64C249.33 36.02 248.43 34.34 243.51 33.62L237.03 32.6C227.49 31.04 216.03 29.9 216.03 17C216.03 7.04 224.13 0.919998 240.15 0.919998C254.61 0.919998 264.69 4.94 264.39 19.34H249.57C248.97 15.98 246.15 13.88 239.79 13.88C234.27 13.88 231.99 15.56 231.99 17.84C231.99 19.28 232.89 21.02 236.73 21.62L242.07 22.52C252.09 24.2 265.83 24.5 265.83 38.3C265.83 49.28 257.31 54.74 240.03 54.68ZM320.496 2.6L299.856 37.34V53H283.236V37.28L262.656 2.6H280.116L290.916 21.56H292.236L303.036 2.6H320.496Z" fill="#00528C"/>
</svg>
