<svg width="102" height="65" viewBox="0 0 102 65" fill="none" xmlns="http://www.w3.org/2000/svg">
<g clip-path="url(#clip0_157_447)">
<path fill-rule="evenodd" clip-rule="evenodd" d="M33.7184 45.7594L22.6036 40.5917L48.2313 0.666016L78.1774 45.6178L53.0453 29.4068L33.7184 45.7594Z" fill="#323F45"/>
<path fill-rule="evenodd" clip-rule="evenodd" d="M53.0453 29.4068L33.7183 45.7593L31.8069 37.4768L49.2223 16.4521L53.0453 29.4068Z" fill="#1C262B"/>
<path fill-rule="evenodd" clip-rule="evenodd" d="M78.1773 45.6178L48.2312 0.666016L49.2223 16.4522L78.1773 45.6178Z" fill="#1C262B"/>
<path fill-rule="evenodd" clip-rule="evenodd" d="M56.6557 51.4229H59.6999H76.549V54.2545H59.7707V56.5198H76.195V59.3514H59.7707V61.6166H76.6198V64.4483H59.7707H56.6557C55.7354 64.4483 54.9567 63.6696 54.9567 62.7493V53.1218C54.9567 52.2015 55.7354 51.4229 56.6557 51.4229Z" fill="#323F45"/>
<path d="M28.4088 51.4229H23.5948V64.519H28.4088V51.4229Z" fill="#323F45"/>
<path fill-rule="evenodd" clip-rule="evenodd" d="M32.2317 51.4229H35.2758H51.7002V54.2545H35.2758V61.6166H47.3817V59.3514H41.2934V56.5198H52.2665V59.3514V61.6166V62.7493C52.2665 63.6696 51.4878 64.4483 50.5675 64.4483H35.2758H32.2317H31.8777C31.099 64.3067 30.5326 63.5988 30.5326 62.7493V53.1218C30.5326 52.2723 31.099 51.6352 31.8777 51.4229H32.2317Z" fill="#323F45"/>
<path fill-rule="evenodd" clip-rule="evenodd" d="M78.319 51.4229H95.522H98.283H98.4954C99.4158 51.4229 100.124 52.1308 100.124 53.051V57.7232C100.124 58.6435 99.4158 59.3514 98.4954 59.3514H98.283H97.6459L101.894 64.4483H95.7344L91.4868 59.3514H83.133V64.4483H78.319V59.4221V58.0063V56.5905H95.522V54.3253H78.319V51.4229Z" fill="#323F45"/>
<path fill-rule="evenodd" clip-rule="evenodd" d="M1.71921 51.4229H4.76338H21.6125V54.2545H4.83417V56.5198H21.2585V59.3514H4.83417V61.6166H21.6833V64.4483H4.83417H1.71921C0.798882 64.4483 0.0201416 63.6696 0.0201416 62.7493V53.1218C0.0201416 52.2015 0.798882 51.4229 1.71921 51.4229Z" fill="#323F45"/>
</g>
<defs>
<clipPath id="clip0_157_447">
<rect width="101.873" height="63.8528" fill="white" transform="translate(0.0201416 0.666016)"/>
</clipPath>
</defs>
</svg>
