<svg width="132" height="41" viewBox="0 0 132 41" fill="none" xmlns="http://www.w3.org/2000/svg">
<path d="M82.8628 0.985078C82.8036 0.994075 82.5615 1.03161 82.3248 1.06846C79.6109 1.49091 77.1086 3.18095 75.5423 5.64915C74.7793 6.85161 74.2698 8.22576 74.034 9.71751C73.9596 10.1878 73.9582 11.9768 74.0318 12.4512C74.2238 13.6886 74.517 14.6203 75.05 15.6875C76.0215 17.6324 77.7124 19.3217 79.6282 20.2612C79.8804 20.3848 80.1545 20.5112 80.2374 20.5418C80.3202 20.5725 80.4461 20.6221 80.5171 20.652C81.551 21.0872 83.1892 21.3335 84.4197 21.2387C86.4354 21.0834 88.2047 20.3833 89.8137 19.1045C90.5795 18.4958 91.3777 17.626 91.9373 16.7903C92.0595 16.6079 92.1595 16.449 92.1595 16.4371C92.1595 16.4252 92.2096 16.342 92.2708 16.2522C92.4684 15.9622 92.922 14.9838 93.1045 14.4539C93.5381 13.1942 93.6415 12.5495 93.643 11.0951C93.644 10.1006 93.6328 9.91343 93.5421 9.41616C93.4449 8.88256 93.235 8.05007 93.1515 7.86638C93.13 7.81902 93.0889 7.70279 93.0602 7.60808C93.0316 7.51337 92.9551 7.31965 92.8901 7.17759C92.8252 7.03552 92.7204 6.80305 92.6571 6.66099C92.5938 6.51893 92.4511 6.25082 92.34 6.06514C92.2289 5.87951 92.1022 5.66642 92.0585 5.5916C91.8633 5.25723 91.2078 4.43662 90.7887 4.00212C89.1538 2.30709 87.1579 1.29236 84.8896 1.00307C84.5548 0.960366 83.109 0.947539 82.8628 0.985078ZM84.8072 6.24638C85.2948 6.37415 85.7502 6.57674 86.17 6.85256C87.5997 7.79181 88.4966 9.42568 88.4989 11.0951C88.4996 11.5867 88.3679 12.404 88.2423 12.6879C88.2213 12.7353 88.1479 12.9096 88.0792 13.0754C87.6298 14.1588 86.6811 15.1508 85.611 15.6559C84.9614 15.9626 84.592 16.0433 83.8312 16.0446C83.0325 16.0461 82.5847 15.945 81.9373 15.6173C79.8155 14.5431 78.6976 12.1162 79.288 9.86586C79.403 9.42779 79.59 8.97822 79.8273 8.56977C80.0366 8.20944 80.0431 8.20057 80.4134 7.7631C81.1029 6.94856 82.1885 6.32396 83.1856 6.16794C83.5846 6.10552 84.4249 6.14616 84.8072 6.24638Z" fill="#96CA4E" stroke="#96CA4E" stroke-width="1.33333"/>
<path d="M96.8599 1.37312C96.6812 1.46116 96.5622 1.61136 96.5062 1.81916C96.4771 1.92713 96.4663 5.0707 96.4738 11.2168L96.485 20.4521L96.5738 20.571C96.6226 20.6363 96.716 20.7298 96.7813 20.7786C96.8971 20.8651 96.9555 20.8677 99.041 20.8793L101.182 20.8912L101.326 20.7932C101.405 20.7393 101.51 20.6405 101.56 20.5737C101.648 20.4549 101.65 20.4011 101.671 18.1629L101.693 15.8736L101.822 16.1252C102.278 17.0141 103.546 18.3115 104.756 19.1266C106.638 20.3948 108.911 21.0573 110.728 20.8672C111.316 20.8057 111.41 20.7687 111.589 20.5279C111.676 20.4122 111.678 20.3536 111.69 18.2893L111.702 16.1696L111.604 16.0256C111.39 15.7116 111.364 15.7045 110.396 15.6987C109.399 15.6927 109.178 15.6482 108.493 15.315C107.875 15.0143 107.885 15.0471 108.33 14.7649C109.156 14.2407 109.891 13.5459 110.435 12.774C110.813 12.2381 110.998 11.9036 111.22 11.3534C111.895 9.67622 111.955 7.99242 111.401 6.26131C111.086 5.27543 110.419 4.16342 109.683 3.3968C108.752 2.42775 107.422 1.66805 106.134 1.36933C105.877 1.30967 105.299 1.30144 101.421 1.3023C97.4328 1.30316 96.9877 1.3101 96.8599 1.37312ZM105.119 6.58014C106.401 7.04042 106.945 8.37569 106.337 9.57501C106.19 9.86581 105.785 10.2635 105.48 10.4166C104.961 10.6769 104.883 10.6861 103.203 10.6861H101.671V8.57347V6.46081L103.275 6.47725C104.747 6.49236 104.898 6.5008 105.119 6.58014Z" fill="#96CA4E" stroke="#96CA4E" stroke-width="1.33333"/>
<path d="M56.496 1.38347C56.4224 1.42837 56.3158 1.53001 56.2593 1.60931L56.1565 1.75348V11.1168V20.48L56.2525 20.6147C56.4502 20.8919 56.4243 20.889 58.7239 20.8889C61.0179 20.8889 60.987 20.8923 61.1891 20.6169C61.2749 20.4999 61.2787 20.4356 61.2905 18.9056L61.3028 17.3159L62.388 17.3147C64.1291 17.3126 65.1322 17.1846 66.0987 16.8412C67.3339 16.4024 68.5089 15.6099 69.3961 14.6173C69.7543 14.2165 70.1783 13.6267 70.3666 13.2672C70.4415 13.1243 70.5262 12.9792 70.5548 12.9446C70.5835 12.9101 70.5919 12.8818 70.5735 12.8818C70.5551 12.8818 70.5707 12.8479 70.6082 12.8065C70.6457 12.765 70.6786 12.717 70.6814 12.6997C70.6842 12.6824 70.7363 12.5565 70.7972 12.4199C71.0493 11.8545 71.2397 11.1565 71.3516 10.3877C71.472 9.56039 71.3996 8.13132 71.2021 7.43602C70.9446 6.52974 70.5743 5.67577 70.1753 5.0683C69.5167 4.06541 68.6341 3.19439 67.6482 2.57448C67.2407 2.31821 66.423 1.90415 66.3245 1.90415C66.2926 1.90415 66.2482 1.88672 66.2257 1.86541C66.1584 1.80161 65.3976 1.57418 64.9367 1.48007C64.1169 1.3127 63.8234 1.30171 60.1807 1.30176C56.7698 1.30176 56.6246 1.30499 56.496 1.38347ZM63.8892 6.52819C64.8383 6.71085 65.5307 7.2333 65.9658 8.09503C66.212 8.58252 66.3085 9.27308 66.2028 9.79088C66.1112 10.2401 65.905 10.7104 65.6847 10.9727C65.622 11.0473 65.5636 11.1249 65.555 11.1452C65.5206 11.2254 65.0089 11.6312 64.7834 11.7571C64.2227 12.0701 64.1755 12.0776 62.6663 12.0968L61.2998 12.1142V9.31948C61.2998 7.7824 61.3127 6.51188 61.3285 6.49612C61.3868 6.43775 63.5606 6.46495 63.8892 6.52819Z" fill="#96CA4E" stroke="#96CA4E" stroke-width="1.33333"/>
<path d="M1.35775 1.38573C1.27731 1.43481 1.17857 1.55595 1.12103 1.67619L1.02229 1.88244L1.01115 11.274L1 20.6655L1.22402 20.7772L1.44809 20.8888H7.87582C14.102 20.8888 14.3086 20.8863 14.4636 20.8072C14.5575 20.7593 14.6635 20.6546 14.7201 20.5538C14.8164 20.3825 14.8166 20.3761 14.8166 18.3309C14.8166 16.6009 14.8065 16.2555 14.7518 16.1245C14.6809 15.9549 14.5494 15.8214 14.3942 15.7614C14.3381 15.7397 12.5165 15.7229 10.2301 15.7229H6.16558V14.7766V13.8302L9.55834 13.8187L12.9511 13.8072L13.1055 13.6894C13.3858 13.4755 13.4024 13.357 13.3876 11.6695C13.3756 10.2814 13.3695 10.1821 13.2887 10.0449C13.2414 9.96444 13.148 9.85789 13.0811 9.80808C12.9603 9.71798 12.9398 9.71738 9.5626 9.70593L6.16558 9.69443V8.08081V6.46722H10.255H14.3444L14.4966 6.37036C14.5846 6.31439 14.6848 6.19614 14.7339 6.09028C14.8155 5.91455 14.8185 5.82208 14.8071 3.82251C14.7954 1.78442 14.7931 1.7353 14.7051 1.61648C14.6555 1.54967 14.551 1.45143 14.4727 1.39813L14.3304 1.30127L7.91309 1.30144C1.62098 1.30157 1.49302 1.30325 1.35775 1.38573Z" fill="#96CA4E" stroke="#96CA4E" stroke-width="1.33333"/>
<path d="M19.741 1.36236C19.4902 1.47162 19.3032 1.82398 19.3535 2.09235C19.3679 2.16924 19.4685 2.37622 19.5771 2.55229C19.738 2.81326 21.396 5.54971 21.5317 5.77834C21.5528 5.81386 21.7229 6.09476 21.9098 6.40256C22.6124 7.56012 23.749 9.43958 23.7904 9.5125C23.8141 9.55413 23.8977 9.69939 23.9762 9.83525C24.0579 9.97667 24.1054 10.1055 24.0874 10.1366C24.0579 10.1873 23.7091 10.7382 22.8083 12.157C22.6028 12.4808 22.4347 12.7649 22.4347 12.7884C22.4347 12.812 22.4185 12.8377 22.3988 12.8457C22.3559 12.8628 21.2296 14.6399 21.2296 14.6905C21.2296 14.7097 21.2148 14.7319 21.1968 14.7398C21.1682 14.7523 20.6816 15.5107 19.2105 17.8353C19.0072 18.1566 18.8215 18.4515 18.7978 18.4907C18.7741 18.5299 18.5516 18.8772 18.3032 19.2626C17.8581 19.9531 17.8516 19.9669 17.8513 20.2215C17.851 20.4201 17.8731 20.5109 17.9469 20.6144C18.1504 20.8998 18.0738 20.8927 20.8401 20.8793L23.3371 20.8672L23.4816 20.7165C23.6078 20.5849 23.8823 20.1683 24.6683 18.9156C24.7773 18.7419 24.9058 18.5385 24.954 18.4636C25.0596 18.2991 25.9842 16.8439 26.6337 15.8198C26.8926 15.4115 27.1154 15.0773 27.1286 15.0772C27.1419 15.0771 27.2775 15.2853 27.4299 15.5398C27.5823 15.7944 27.7216 16.0091 27.7394 16.017C27.7571 16.0249 27.7716 16.0482 27.7716 16.0688C27.7716 16.1022 28.2743 16.9421 29.3373 18.6852C29.5296 19.0005 29.7102 19.3007 29.7387 19.3525C30.004 19.8351 30.5724 20.7051 30.6692 20.777C30.7887 20.8658 30.83 20.8674 33.2664 20.879C35.7256 20.8907 35.7431 20.8902 35.89 20.7993C35.9714 20.7491 36.0783 20.6289 36.1275 20.5324C36.309 20.1765 36.3277 20.2154 34.65 17.4448C32.7879 14.3697 32.5827 14.0305 31.421 12.1066C30.9134 11.2661 30.4431 10.4913 30.3759 10.3849C30.3086 10.2785 30.2538 10.1719 30.2541 10.1481C30.2544 10.1086 30.5205 9.67846 31.1062 8.77029C31.2284 8.58087 31.3658 8.35809 31.4115 8.27522C31.4572 8.19235 31.5055 8.11486 31.5187 8.10302C31.532 8.09118 32.0633 7.25817 32.6992 6.25189C33.3352 5.2456 33.9751 4.23824 34.1212 4.01331C34.2673 3.78838 34.5834 3.29128 34.8237 2.90866C35.2388 2.24767 35.2606 2.20127 35.2606 1.9787C35.2606 1.69785 35.1416 1.49026 34.9154 1.37661C34.7782 1.3076 34.564 1.30131 32.3527 1.30127C30.0384 1.30118 29.9326 1.30467 29.764 1.38617C29.6065 1.46224 29.5111 1.59246 28.852 2.63004C28.4472 3.26744 28.116 3.81038 28.116 3.83655C28.116 3.86272 28.1008 3.88416 28.0822 3.88416C28.0636 3.88416 28.0116 3.94714 27.9666 4.02407C27.9215 4.10105 27.7417 4.38474 27.567 4.65462C27.2985 5.06923 27.2404 5.13591 27.1917 5.08511C27.1416 5.03281 26.1926 3.48462 25.9541 3.06622C25.9069 2.98335 25.8124 2.83224 25.744 2.73043C25.6756 2.62862 25.6196 2.53727 25.6196 2.52745C25.6196 2.49504 25.1394 1.71296 25.0316 1.56973C24.8265 1.29736 24.8648 1.30101 22.2465 1.30286C20.3581 1.3042 19.8467 1.31634 19.741 1.36236Z" fill="#96CA4E" stroke="#96CA4E" stroke-width="1.33333"/>
<path d="M44.6003 1.02069C42.5988 1.27769 40.9546 2.02146 39.7741 3.20386C38.5956 4.3842 37.9637 5.90479 38.027 7.40834C38.0848 8.78163 38.6814 9.84185 40.0381 10.9824C40.9404 11.7409 41.5528 12.0989 44.256 13.4477C46.1396 14.3876 46.9763 14.8421 47.2651 15.0822C47.6413 15.3949 47.4321 15.9033 46.8144 16.1775C46.419 16.3531 46.0132 16.3939 45.4548 16.3144C44.833 16.226 44.3572 16.0752 43.761 15.7777C43.1818 15.4887 42.8807 15.3096 42.4053 14.9715C42.0461 14.7161 42.0342 14.7113 41.7534 14.7113C41.5285 14.7113 41.4466 14.7297 41.3701 14.7974C41.2485 14.905 38.8987 17.8361 38.7865 18.0202C38.6786 18.1971 38.6789 18.5013 38.7871 18.6787C38.9672 18.9742 40.2116 19.793 41.2647 20.3089C42.3927 20.8616 43.1452 21.0943 44.2017 21.2175C45.2144 21.3356 46.6481 21.1947 47.7963 20.8643C49.7261 20.3088 51.2033 19.202 52.1012 17.6386C52.8974 16.2523 53.0429 14.5864 52.4799 13.3036C52.1674 12.5914 51.7242 12.0247 50.9487 11.3451C50.4677 10.9236 49.5375 10.2556 49.4315 10.2556C49.4059 10.2556 49.3785 10.2406 49.3706 10.2223C49.3357 10.1412 47.3715 9.12396 46.1494 8.55407C45.8178 8.39947 44.9068 7.92029 44.3636 7.61473C43.458 7.10532 43.3091 6.95034 43.4018 6.613C43.4832 6.31687 43.8891 6.01586 44.3511 5.90931C44.7737 5.8118 45.9438 5.91345 46.3004 6.07863C46.3477 6.10059 46.5317 6.17872 46.7093 6.25229C47.2962 6.49552 47.8488 6.81465 48.6418 7.36826C48.7955 7.47559 48.8743 7.50047 49.0604 7.50047C49.2029 7.50047 49.3363 7.47197 49.4132 7.42513C49.4812 7.38372 49.714 7.12702 49.9307 6.85473C50.1473 6.58244 50.3443 6.33585 50.3685 6.30671C50.8269 5.75477 52.0286 4.23284 52.0725 4.14859C52.1443 4.011 52.1504 3.69725 52.0838 3.57267C52.0571 3.52277 51.9901 3.4368 51.935 3.38166C51.811 3.25767 51.1316 2.76743 50.9272 2.65451C50.8443 2.60875 50.7669 2.55988 50.755 2.54598C50.6617 2.43616 49.1736 1.66006 48.9043 1.58076C48.8451 1.56333 48.7773 1.53418 48.7537 1.51597C48.7176 1.48821 48.3382 1.36216 47.7207 1.1727C47.0493 0.966748 45.5783 0.89507 44.6003 1.02069Z" fill="#96CA4E" stroke="#96CA4E" stroke-width="1.33333"/>
<path d="M114.454 1.3496C114.395 1.37333 114.301 1.43515 114.246 1.48698C114.027 1.69271 114.024 1.72172 114.024 3.9129C114.024 5.88272 114.027 5.96026 114.112 6.12638C114.16 6.22109 114.262 6.33647 114.338 6.38279C114.471 6.46411 114.572 6.46708 117.193 6.46721C119.632 6.46738 119.914 6.4744 119.937 6.53549C119.952 6.57294 119.963 9.72994 119.963 13.5511V20.4985L120.092 20.6454C120.163 20.7262 120.275 20.8147 120.342 20.8422C120.429 20.8784 121.051 20.8887 122.599 20.8798L124.736 20.8675L124.89 20.7187C124.974 20.6369 125.062 20.5013 125.085 20.4173C125.112 20.3202 125.128 17.7607 125.128 13.3661L125.128 6.46738H127.82C130.433 6.46738 130.517 6.46484 130.681 6.38072C130.792 6.3245 130.882 6.23345 130.939 6.12182C131.025 5.95436 131.027 5.89103 131.015 3.84385C131.003 1.79387 131.001 1.73503 130.914 1.61931C130.866 1.55396 130.772 1.46054 130.707 1.41173L130.588 1.32296L122.575 1.31473C117.31 1.30935 114.525 1.32132 114.454 1.3496Z" fill="#96CA4E" stroke="#96CA4E" stroke-width="1.33333"/>
<path d="M53.5096 36.9459V39.9601H54.1982H54.8869V38.478C54.8869 37.6629 54.868 36.8541 54.8449 36.6807C54.8218 36.5073 54.7976 36.2299 54.7911 36.0641C54.7824 35.8433 54.8703 36.2169 55.12 37.4633C55.3073 38.3985 55.4852 39.2703 55.5152 39.4005C55.5452 39.5307 55.5816 39.7099 55.5961 39.7987L55.6225 39.9601H56.6534H57.6845V36.9467V33.9332H56.9743H56.2641V35.3267C56.2641 36.3282 56.2838 36.8945 56.3339 37.3393C56.3723 37.6798 56.4061 38.0201 56.4092 38.0956C56.4123 38.1711 56.22 37.2703 55.982 36.0938L55.5493 33.9547L54.5294 33.9432L53.5096 33.9316V36.9459Z" fill="#96CA4E" stroke="#96CA4E" stroke-width="1.33333"/>
<path d="M74.7761 34.0009C74.2662 34.138 73.7774 34.5088 73.5697 34.9159C73.1998 35.6412 73.2528 36.7169 73.6894 37.3419C74.143 37.9913 74.8392 38.1445 75.4666 37.733L75.7143 37.5705L75.564 37.8797C75.3063 38.4103 74.808 38.7696 73.9826 39.0201C73.8009 39.0752 73.6589 39.1397 73.6671 39.1634C73.6753 39.187 73.7466 39.436 73.8254 39.7165L73.9689 40.2266L74.1266 40.2014C74.2132 40.1876 74.4567 40.1262 74.6676 40.0651C76.2345 39.6112 77.0649 38.7797 77.3548 37.3742C77.4582 36.8725 77.4723 35.7595 77.3796 35.4111C77.2501 34.9245 77.0015 34.5486 76.6067 34.2424C76.2626 33.9754 75.3287 33.8522 74.7761 34.0009ZM75.6203 35.1033C75.7072 35.1755 75.7607 35.4326 75.7895 35.9177C75.8217 36.4598 75.8032 36.5533 75.6287 36.7278C75.4735 36.8831 75.2573 36.9069 75.1435 36.7813C74.9294 36.5446 74.8751 35.6515 75.0528 35.2893C75.1795 35.031 75.4331 34.9479 75.6203 35.1033Z" fill="#96CA4E" stroke="#96CA4E" stroke-width="1.33333"/>
<path d="M83.573 33.993C82.8335 34.1736 82.2954 34.7002 82.1338 35.4016C82.0668 35.692 82.0789 36.4036 82.1558 36.7005C82.3526 37.4601 82.8559 37.9443 83.4567 37.952C83.7844 37.9562 84.0135 37.8828 84.2601 37.6944C84.4499 37.5495 84.4624 37.5456 84.4336 37.6406C84.3154 38.0304 83.8808 38.5226 83.4718 38.7299C83.3477 38.7928 83.0569 38.9077 82.8255 38.9854L82.4047 39.1266L82.4862 39.4034C82.531 39.5556 82.599 39.803 82.6372 39.9529L82.7068 40.2257L82.9032 40.1978C83.1504 40.1627 84.0606 39.8575 84.3469 39.7138C85.3991 39.1855 86.0158 38.2525 86.1754 36.9477C86.3778 35.2916 85.8422 34.2299 84.6791 33.9817C84.3884 33.9197 83.8506 33.9252 83.573 33.993ZM84.2568 35.0505C84.4461 35.1226 84.5009 35.3038 84.5285 35.9495L84.5538 36.5398L84.4 36.703C84.2664 36.8446 84.2246 36.8643 84.0818 36.8525C83.934 36.8403 83.9073 36.8188 83.8183 36.6394C83.7324 36.4663 83.7192 36.3743 83.7187 35.9436C83.718 35.397 83.7913 35.1586 83.9894 35.0633C84.1174 35.0017 84.1272 35.0013 84.2568 35.0505Z" fill="#96CA4E" stroke="#96CA4E" stroke-width="1.33333"/>
<path d="M47.3764 33.8425C47.0264 33.9444 46.799 34.0681 46.5583 34.2872C46.1578 34.6517 46.005 35.0571 46.0277 35.6948C46.0403 36.0487 46.0606 36.1439 46.1704 36.3645C46.2408 36.5059 46.3538 36.6848 46.4215 36.7619C46.5852 36.9484 47.0314 37.2384 47.4966 37.4606C48.0992 37.7485 48.3017 37.9713 48.3017 38.3459C48.3017 38.7133 48.1073 38.9271 47.7731 38.9271C47.4712 38.9271 47.1599 38.8098 46.8609 38.5834L46.5819 38.3722L46.196 38.8061C45.7515 39.3058 45.7517 39.2815 46.1905 39.6023C46.7011 39.9754 47.0443 40.0914 47.7207 40.1197C48.549 40.1544 49.097 39.9809 49.5314 39.5465C49.9011 39.1767 50.0638 38.7446 50.0648 38.1307C50.0656 37.6596 49.9305 37.1922 49.738 36.9996C49.7056 36.9672 49.679 36.9226 49.679 36.9006C49.679 36.8181 49.1251 36.4572 48.5525 36.1666C48.2266 36.0012 47.9203 35.8154 47.8717 35.7536C47.6929 35.5262 47.7073 35.2962 47.9133 35.0902C48.0186 34.9848 48.0708 34.9666 48.2662 34.9669C48.5171 34.9674 48.8375 35.0936 49.104 35.2969L49.2593 35.4154L49.3508 35.3032C49.4011 35.2415 49.5565 35.0526 49.6961 34.8833L49.95 34.5755L49.8252 34.4445C49.6843 34.2965 49.4088 34.102 49.16 33.975C48.7482 33.765 47.8673 33.6995 47.3764 33.8425Z" fill="#96CA4E" stroke="#96CA4E" stroke-width="1.33333"/>
<path d="M63.4089 36.9461V39.9596H65.0659H66.723V39.3784V38.7972H65.9052H65.0874V38.13V37.4627H65.7761H66.4647V36.903V36.3434H65.7761H65.0874V35.7192V35.095H65.8602H66.633L66.6553 34.955C66.6675 34.8781 66.7071 34.6325 66.7433 34.4093C66.7795 34.1861 66.809 33.9876 66.809 33.9681C66.809 33.9486 66.044 33.9326 65.109 33.9326H63.4089V36.9461Z" fill="#96CA4E" stroke="#96CA4E" stroke-width="1.33333"/>
<path d="M60.3089 33.8405C59.4729 34.0563 58.9024 34.7335 58.6538 35.8053C58.5051 36.4465 58.5297 37.7392 58.7022 38.3452C58.745 38.4955 58.9445 38.9901 58.9714 39.0125C58.9856 39.0243 59.0262 39.0905 59.0617 39.1595C59.1677 39.3656 59.59 39.7575 59.8455 39.8868C60.4628 40.1992 61.2676 40.2191 61.8826 39.937C62.0831 39.8451 62.5367 39.5326 62.6456 39.4115C62.7192 39.3296 62.715 39.3186 62.5164 39.071C62.4035 38.9302 62.2875 38.7869 62.2584 38.7524C62.2294 38.7179 62.1606 38.6339 62.1054 38.5658L62.005 38.442L61.7239 38.6346C61.4187 38.8435 61.1852 38.9062 60.9564 38.8406C60.4979 38.7091 60.3087 38.1509 60.3113 36.9372C60.3136 35.876 60.4297 35.3845 60.7396 35.1237C60.9995 34.9049 61.31 34.9329 61.7008 35.2102L61.9082 35.3574L62.0021 35.2379C62.0537 35.1721 62.2192 34.9776 62.3697 34.8056C62.5369 34.6145 62.634 34.4683 62.6192 34.4297C62.5778 34.3218 61.9447 33.9077 61.7842 33.8835C61.7663 33.8809 61.7323 33.8732 61.7086 33.8664C61.2653 33.7407 60.7338 33.7308 60.3089 33.8405Z" fill="#96CA4E" stroke="#96CA4E" stroke-width="1.33333"/>
<path d="M78.0424 34.6647V35.2674H78.9462C79.4433 35.2674 79.85 35.2739 79.85 35.2819C79.85 35.3089 78.4785 39.1586 78.3618 39.4594C78.3261 39.5511 78.3078 39.6369 78.321 39.6501C78.3501 39.6793 79.735 40.1323 79.7498 40.1175C79.7606 40.1067 80.0531 39.2832 80.387 38.3239C80.49 38.028 80.6458 37.5824 80.7331 37.3338C80.8205 37.0852 80.8967 36.8624 80.9025 36.8387C80.9083 36.815 80.9252 36.7666 80.94 36.7311C80.9548 36.6956 81.0837 36.3339 81.2262 35.9274L81.4856 35.1883V34.6252V34.062H79.764H78.0424V34.6647Z" fill="#96CA4E" stroke="#96CA4E" stroke-width="1.33333"/>
<path d="M69.9999 34.713L69.1309 35.321L69.2323 35.4556C69.288 35.5296 69.4451 35.75 69.5812 35.9454C69.7174 36.1407 69.8475 36.3005 69.8703 36.3005C69.8932 36.3005 70.1037 36.1552 70.3381 35.9776C70.5726 35.8001 70.775 35.6548 70.788 35.6548C70.8009 35.6548 70.8116 36.6234 70.8116 37.8072V39.9597H71.5863H72.361V37.0324V34.105H71.615H70.8689L69.9999 34.713Z" fill="#96CA4E" stroke="#96CA4E" stroke-width="1.33333"/>
<path d="M50.841 36.9461V39.9596H51.7018H52.5626V36.9461V33.9326H51.7018H50.841V36.9461Z" fill="#96CA4E" stroke="#96CA4E" stroke-width="1.33333"/>
</svg>
