<svg width="114" height="100" viewBox="0 0 114 100" fill="none" xmlns="http://www.w3.org/2000/svg">
<g clip-path="url(#clip0_157_471)">
<path d="M9.32328 49.2487C11.117 49.2487 13.2817 48.3417 15.4464 48.5272C15.7968 47.62 15.7968 46.7335 16.1679 45.8266C16.5185 44.7546 17.0752 43.6617 17.4255 42.5899C17.6111 42.2393 17.6111 41.6826 17.7761 41.3323C17.9617 40.9819 17.9617 40.7963 18.1265 40.425C18.1265 40.2396 18.312 40.0746 18.312 39.8891C18.312 39.7037 18.312 39.5385 18.312 39.3532C18.312 39.1676 18.4976 39.0026 18.4976 38.817C18.6832 38.4666 18.6832 37.9097 18.8479 37.5596C19.0335 36.8381 19.3841 36.302 19.5697 35.5803C19.7552 34.859 19.92 34.3229 20.1056 33.6012C20.2911 32.8794 20.6417 32.5291 20.8271 31.8074C21.1776 31.0859 21.1776 30.1786 21.5485 29.4571C21.8991 28.5501 22.0847 27.8283 22.27 26.9419C22.6206 25.4987 23.3421 24.0555 24.0638 22.6125C24.4144 21.7054 24.9709 20.8187 25.1359 19.7261C25.1359 19.3758 25.3214 19.0046 25.3214 18.654C25.507 18.3035 25.672 17.582 26.0429 17.582C26.5791 17.3964 27.4861 18.654 27.8367 19.0252C28.0223 19.2107 28.187 19.5613 28.3726 19.7467C28.5582 19.9322 28.7232 20.2828 28.7232 20.4681C28.7232 20.8185 28.7232 21.0043 28.7232 21.3754C28.5376 21.9114 28.3726 22.6328 28.187 23.169C28.0015 23.5196 28.0015 23.7051 27.8367 24.0763C27.4861 25.1483 27.1152 26.0554 26.7646 26.9627C26.2285 28.4059 25.6926 29.6633 25.1359 31.1067C24.7853 32.0137 24.5997 33.0858 24.2288 33.9931C23.8782 35.0649 23.5071 36.1575 23.1567 37.4154C22.9712 38.3227 22.6206 39.0439 22.2497 39.9306C21.8785 40.8171 21.7135 41.5594 21.3424 42.4459C20.9921 43.8891 20.2703 45.3323 19.8992 46.7753C19.8992 47.1259 19.7136 47.3114 19.7136 47.6826C19.7136 47.8679 19.5281 48.2185 19.5281 48.4041C20.4351 48.5894 21.5072 48.5894 22.4145 48.5894C22.7648 47.8679 22.9506 47.332 23.3215 46.6103C23.8577 45.703 24.3936 44.4456 25.3006 43.3735C25.4862 43.188 25.6512 43.188 25.8368 43.023C26.5583 42.1157 27.28 41.3942 28.5376 40.8583C28.7232 40.6727 29.4447 40.5077 29.6097 40.5077C30.3314 40.5077 30.6819 41.415 31.2384 41.7651C31.589 41.9507 31.9599 42.1157 32.3105 42.4868C32.6611 42.6722 33.032 43.0227 33.3825 43.3939C33.5681 43.7444 33.9187 44.3012 33.9187 44.6515C33.9187 45.1874 33.7331 45.7236 33.5681 46.4453C33.3826 47.5171 33.3826 48.2388 32.8464 48.9605C32.4961 49.3109 31.9394 49.4964 31.589 49.8676C31.4034 50.0532 31.2384 50.2182 30.8675 50.2182C30.5169 50.4035 30.3314 50.5687 29.9602 50.5687C29.6097 50.7541 29.2387 50.7541 28.8882 50.9193C28.1667 51.1047 27.445 51.4552 26.7235 51.6406C26.5379 51.6406 25.4659 51.8261 25.4659 51.8261C25.1155 53.4549 25.4659 55.434 26.3731 56.5061C26.9093 56.6916 27.8163 56.3207 28.3523 55.9702C29.0737 55.6196 29.7952 54.8981 30.3314 54.3414C31.7746 53.084 32.8464 51.6406 33.9393 50.012C34.1248 49.6615 34.2898 49.1048 34.6607 48.7544C34.8463 48.5691 34.8463 48.5691 34.8463 48.4041C35.0319 47.6826 35.3825 47.1464 35.7534 46.6103C36.104 46.0744 36.4751 45.1671 36.4751 44.6309C36.6607 43.7239 36.1245 42.6518 36.4751 41.7445C36.6607 41.394 36.8254 41.2086 37.0112 40.8375C37.1968 40.6519 37.1968 40.4869 37.1968 40.3013C37.1968 39.7654 37.9183 39.7654 38.2689 39.9508C38.6194 40.1364 38.805 40.858 39.1761 41.0228C39.5267 41.3734 39.8976 41.7443 40.0832 41.9301C40.2688 42.466 40.0832 43.0022 40.4338 43.3733C41.3408 43.1877 41.8767 42.6518 42.5985 42.8374C42.9488 42.8374 43.3199 43.1877 43.8561 43.3733C44.2064 43.5589 44.7631 43.5589 45.1135 43.9092C45.2991 44.0948 45.4641 44.4454 45.6496 44.8165C45.8352 45.3524 46 46.0741 46 46.7956C46 47.5171 45.4641 47.8677 45.2785 48.2388C43.4847 49.8676 42.0417 51.6614 41.32 54.197C41.32 54.3825 41.1345 54.9187 41.1345 55.1043C41.32 55.2898 41.856 54.7537 42.0415 54.5683C42.2271 54.3828 42.2271 54.3828 42.3919 54.2175C42.7424 53.8672 43.1134 53.4961 43.6495 53.1457C44.371 52.4242 45.2783 51.7025 45.8142 50.7954C45.2783 49.538 45.9998 48.4454 47.0718 49.3523C47.7933 48.6308 48.1439 47.7235 48.8654 46.837C49.0509 46.4864 49.4015 46.3011 49.5868 45.9299C49.7724 45.5586 49.9374 45.2085 50.123 44.8579C50.3086 44.5073 50.6591 44.1362 50.8447 43.6003C51.0303 43.2497 51.3806 42.8787 51.5662 42.3428C51.7518 42.1573 51.7518 41.9923 51.9168 41.6214C51.9168 41.4358 52.1023 41.2708 52.1023 41.0854C52.1023 40.8996 52.1023 40.5493 52.1023 40.3637C52.1023 40.1784 52.1023 39.8278 52.1023 39.6422C52.1023 39.4569 52.1023 39.1063 52.1023 38.9208C52.1023 38.7354 52.4529 38.7354 52.6385 38.7354C52.6385 38.7354 52.6385 38.5498 52.6385 38.3848L52.824 38.1993C53.0096 38.0139 53.1746 38.0139 53.3602 38.0139C53.7105 38.0139 54.0817 38.1993 54.4322 38.5499C54.6178 38.7354 54.6178 39.086 54.6178 39.2713C55.154 39.8072 55.8754 40.5287 55.8754 41.436C55.8754 41.7866 55.6899 42.1575 55.5249 42.3433C55.3393 43.6007 55.5249 45.2297 55.8754 46.4871C56.2258 47.7447 56.4116 49.3735 56.4116 50.8167C56.7619 50.6311 56.9475 50.2806 57.1331 49.9094C57.4836 49.1879 58.0404 48.4662 58.3905 47.7447C58.741 46.8374 59.112 46.116 59.6481 45.3945C59.8334 45.0439 60.184 44.673 60.5554 44.3226C61.0913 43.4153 61.6272 42.6939 62.1839 41.9724C62.5345 41.6218 63.0912 41.0651 63.6271 40.7147C63.8127 40.5292 64.1633 40.3642 64.3486 40.1788C64.5342 39.9933 64.6992 39.6427 65.0701 39.6427C65.2557 39.4574 65.606 39.4573 65.7916 39.4573C65.9772 39.4573 66.3277 39.2718 66.5131 39.2718C67.0492 39.2718 67.5851 39.0864 67.9563 39.4573C68.3068 39.6427 68.8636 39.9933 69.2139 40.3644C69.3995 40.715 69.7498 41.2717 70.1212 41.4365C70.3065 41.4365 70.4715 41.4365 70.4715 41.4365C70.6571 41.4365 71.0077 41.2509 71.193 41.4365C71.3786 41.622 71.5436 41.787 71.5436 42.1579C71.5436 42.6941 71.5436 43.23 71.3583 43.6011C71.3583 43.7867 71.1727 43.9517 71.1727 44.1371C71.1727 44.3229 70.9871 44.4876 70.8221 44.6732C70.6368 44.8588 70.4715 45.0238 70.4715 45.3947C70.2862 45.7453 70.2862 45.9309 70.1212 46.302C69.9356 46.6526 69.7706 46.8379 69.585 47.209C69.3997 47.7452 69.2345 48.1163 68.3274 47.7452C68.1421 47.5596 67.7915 47.3946 67.6059 47.209C67.4206 47.0237 67.2556 47.0237 67.07 46.6731C66.5341 47.0237 66.5341 46.8585 66.5341 46.4875C66.5341 46.137 66.3485 45.9516 66.3485 45.7661C66.3485 45.4157 66.5341 45.2301 66.5341 45.0446C66.5341 44.8592 66.7194 44.6942 66.5341 44.5087C66.3485 44.3233 65.9979 44.5087 65.8126 44.5087C65.2765 44.6942 65.0909 45.2302 64.7406 45.5807C64.2044 46.1166 63.6685 46.6528 63.2973 47.3743C63.1118 47.7248 62.9468 48.096 62.7612 48.4465C62.5759 48.7969 62.2253 49.1678 62.2253 49.5184C61.8747 50.776 61.6891 51.6833 62.5759 52.5903C62.7612 52.7759 62.9264 52.7759 63.1118 52.7759C63.2974 52.7759 63.2973 52.9613 63.4623 52.9613C63.8129 53.1468 64.1838 53.3118 64.5344 53.3118C65.6062 53.1263 67.235 52.4046 68.1423 51.8686C68.4929 51.6833 68.8638 51.1471 69.3999 50.9613C69.7503 50.6108 70.307 50.2399 70.4718 49.8893C70.4718 49.704 70.6573 49.539 70.6573 49.3534C71.0079 48.6319 71.3788 47.9102 71.5644 47.0031C71.75 46.4672 71.915 45.9313 72.1005 45.5599C72.2861 45.3746 72.2861 45.024 72.2861 44.8384C72.4714 44.3025 72.822 43.9314 73.0076 43.3952C73.3582 42.8593 73.5435 42.1378 73.9146 41.6015C74.1002 41.2509 74.2652 40.88 74.4508 40.5294C74.8011 39.8079 74.9867 39.272 75.172 38.5503C75.3576 38.1997 75.3576 37.8288 75.5226 37.643C75.7082 37.2924 75.8732 37.1071 75.8732 36.736C75.8732 36.3854 76.0588 36.1998 76.0588 35.8287C76.2443 35.4783 76.4093 35.2927 76.4093 34.9214C76.7599 34.1999 77.1308 33.2928 77.4814 32.5714C77.6667 32.0352 77.8317 31.4993 78.2027 30.9426C78.5532 30.2211 78.9241 29.3138 79.2747 28.4273C79.6253 27.8914 79.8109 27.5203 79.9964 26.7988C80.1818 26.2626 80.5323 25.8915 80.9035 25.3554C81.2541 24.8194 81.2541 24.098 81.625 23.3762C81.9755 22.8401 82.1609 22.3042 82.532 21.5825C82.7178 21.0466 82.8826 20.5104 83.2537 19.7889C83.4391 19.4386 83.7897 18.5313 84.1608 18.3457C85.0681 17.9954 85.9546 19.4178 86.3255 20.1395C86.511 20.3251 86.676 20.6756 86.676 21.0466C86.676 21.5825 86.676 22.1186 86.4907 22.6751C86.1401 24.3039 85.4186 25.5615 84.8619 26.8191C83.4187 29.3344 81.9755 31.8704 80.5326 34.3855C80.347 34.736 79.9966 35.107 79.8111 35.4575C79.6255 35.8081 79.6255 36.179 79.4605 36.3648C79.2749 36.7151 79.1099 36.9007 78.9244 37.2719C78.739 37.6224 78.739 37.8078 78.574 38.1792C78.574 38.3647 78.3884 38.7151 78.3884 38.9006C78.2029 39.0862 78.2029 39.4365 78.0379 39.6221C78.574 39.4365 78.9452 39.2715 79.2955 38.9006C79.4811 38.7151 79.6461 38.5501 79.8314 38.5501C80.182 38.3647 80.7387 38.1995 81.089 38.0141C81.4394 37.8286 81.9961 37.8286 82.532 37.8286C83.0682 38.0142 83.6043 38.3647 83.9754 38.7359C84.326 38.9212 84.6969 39.2718 84.8825 39.4573C85.0681 39.8077 85.4186 40.1788 85.6042 40.5292C85.7896 41.4365 85.4187 41.9726 85.2537 42.6941C85.2537 43.0444 85.2537 43.4156 85.2537 43.7659C85.2537 44.1165 85.0681 44.3021 84.9031 44.6732C84.5525 45.2094 84.1816 45.7453 83.9958 46.302C83.8105 46.6526 83.8104 47.0235 83.6452 47.209C83.4599 47.5596 83.1093 47.9308 82.9237 48.2811C82.7384 48.6317 82.5734 49.0026 82.5734 49.3531C82.3878 49.7037 82.2228 50.2604 82.0372 50.6105C81.8519 50.9611 81.5013 51.8682 82.0372 52.054C82.3878 52.2393 83.2946 51.7034 83.666 51.3325C84.0164 50.9819 84.3875 50.7964 84.7381 50.4252C85.0887 50.0746 85.4596 49.8891 85.8101 49.5179C86.1605 49.1673 86.5314 48.7964 86.882 48.2605C87.0675 47.539 87.0675 46.4668 87.2325 45.7453C87.3975 45.0238 87.7685 44.3021 88.1398 43.5806C89.0469 41.7868 90.1189 40.5086 91.7477 39.2512C92.0983 38.9006 92.2836 38.7151 92.6548 38.5297C93.562 38.1791 94.8197 38.5297 95.3556 39.0656C95.7062 39.4162 96.2629 39.7871 96.613 40.1377C97.1491 40.6736 98.0564 41.0448 98.2418 41.9315C98.4273 42.2818 98.2418 42.653 98.2418 43.1889C98.0564 43.725 98.0564 44.0962 97.8912 44.6321C97.7058 45.1682 97.5408 45.7041 97.3553 46.0755C97.1699 46.2608 97.0047 46.4258 96.6338 46.7968C96.2832 47.1473 95.7265 47.5182 95.1906 48.0544C94.6544 48.5903 94.1185 48.9617 93.3968 49.4976C93.0462 49.6832 92.4895 50.4046 91.7681 50.2191C91.2321 50.0335 90.861 49.4976 90.3249 49.3118C89.9743 50.3838 90.6754 51.4765 91.2321 52.3838C91.4175 52.5693 91.5827 52.7343 91.7681 52.7343C92.4895 52.9199 93.0257 52.5488 93.5618 52.1984C94.4691 51.6623 94.8195 50.9408 95.5412 50.4044C95.8915 50.0541 96.4482 49.8685 96.613 49.4974C96.7986 49.3118 97.1491 48.9614 97.3347 48.5901C97.6851 48.0542 98.2418 47.3327 98.7779 46.9615C98.9633 46.776 99.3138 46.611 99.685 46.24C99.8705 46.0545 100.221 45.7039 100.406 45.3328C101.128 44.4255 101.314 43.8896 101.479 42.6319C101.664 41.9104 101.664 41.0034 101.664 40.2819C101.849 39.5604 101.849 38.8387 102.014 38.1172C102.2 37.5811 102.2 37.2099 102.2 36.6738C102.551 34.5093 103.458 32.53 104.179 30.3653C104.365 29.8292 104.365 29.2932 104.53 28.7365C104.715 28.2006 105.066 27.8295 105.066 27.2933C105.251 26.9428 105.251 26.3863 105.416 26.0359C105.602 25.6854 105.952 25.3145 106.138 24.7783C106.323 24.428 106.488 24.0566 106.674 23.5207C107.395 21.8919 108.117 20.2839 109.024 18.6552C109.375 17.9334 109.931 17.0264 110.281 16.3049C110.632 15.769 110.632 14.8619 111.354 14.6761C111.89 14.4906 112.982 15.0265 113.518 15.3976C114.24 15.9338 113.704 17.3767 113.518 18.284C113.333 19.0055 113.168 19.5414 113.168 20.2631C113.168 20.6137 113.168 20.7993 112.982 21.1704C112.797 21.8919 112.632 22.6136 112.446 23.3351C112.261 24.0566 112.261 24.9639 112.096 25.6854C112.096 26.0359 111.745 26.4068 111.745 26.9428C111.745 27.4789 111.745 28.015 111.56 28.3862C111.209 29.1077 111.024 29.6436 110.838 30.3653C110.653 31.087 110.488 31.6229 110.117 32.3447C109.766 32.8806 109.581 33.4165 109.395 33.9732C109.21 34.5093 108.859 35.0453 108.674 35.767C108.323 36.674 107.952 37.5607 107.416 38.4678C106.695 39.9108 105.788 41.3542 104.901 42.7972C104.715 43.1475 104.55 43.3331 104.365 43.7044C104.18 44.0548 103.829 44.2404 103.829 44.6115C103.643 45.333 103.643 46.5908 103.829 47.6835C104.014 48.405 104.014 49.1267 104.014 49.8482C104.014 50.1987 104.014 50.5696 104.2 50.7552C104.2 50.9408 104.385 51.2914 104.55 51.4767C104.901 51.6623 105.458 51.4767 105.808 51.4767C106.158 51.4767 106.529 51.2913 106.88 51.1261C107.231 50.9408 107.416 50.7758 107.787 50.5902C108.138 50.4046 108.323 50.2396 108.694 50.0543C109.416 49.8687 109.952 49.147 110.488 48.6111C110.839 48.2605 111.395 47.3535 111.931 47.1679C112.653 46.9823 113.003 47.8892 112.653 48.6111C112.467 49.147 112.117 49.5182 111.931 50.0543C111.581 50.5902 111.21 51.1261 110.859 51.6831C110.323 52.219 109.787 52.5901 109.066 53.126C108.88 53.3116 108.88 53.4766 108.715 53.4766C108.53 53.6622 108.365 53.6622 108.179 53.8272C107.829 54.0128 107.457 54.1778 107.107 54.5487C106.757 54.734 106.386 54.8992 105.849 55.0848C105.314 55.2702 104.592 55.2702 104.056 55.2702C103.705 55.2702 103.149 55.2702 102.798 55.0848C102.448 54.8992 102.077 54.5487 101.726 54.3631C101.19 54.1778 100.819 53.456 100.819 52.9201C100.633 52.1986 100.469 51.4767 100.469 50.7552C100.469 50.4046 100.469 49.8482 100.469 49.4978C98.4893 50.941 95.9534 53.8272 93.8093 55.2704C93.2732 55.621 92.1805 55.6209 91.4593 55.4559C90.9231 55.2704 90.387 54.92 89.8305 54.7342C89.4799 54.5489 89.109 54.3839 88.7585 54.013C88.4079 53.6624 88.037 53.1057 87.6864 52.5698C87.5011 52.3842 87.3358 52.0336 86.9649 51.8483L86.429 52.1989C86.2434 52.3842 86.0784 52.5492 85.8929 52.7348C85.7075 52.9204 85.5423 53.0854 85.3569 53.0854C85.0064 53.4359 84.6355 53.6213 84.2849 53.8069C83.5634 54.3428 82.4911 54.7139 81.5841 54.7139C81.2337 54.7139 81.0481 54.7139 80.677 54.7139C80.1409 54.7139 79.6049 54.5286 79.0482 54.178C78.6977 53.9924 78.1412 53.8274 77.7906 53.2707C77.6053 53.0854 77.6053 52.7348 77.6053 52.3637C77.6053 51.9923 77.7906 51.2916 77.9558 50.9205C78.1414 50.3843 78.1414 49.8484 78.3062 49.4772C78.6568 48.7555 79.0279 47.8485 79.3785 47.127C79.5638 46.5911 79.9144 46.0549 80.0999 45.4982C80.2853 44.9417 80.2853 44.4261 80.4503 43.8697C80.4503 43.5191 80.6359 42.7976 80.2649 42.612C79.7288 42.0761 78.4712 42.4265 77.9147 42.7976C77.5641 42.983 77.1932 43.148 77.0076 43.3335C76.8221 43.5191 76.4715 43.5191 76.2861 43.8697C76.1006 44.055 76.1006 44.2203 75.9356 44.4056C75.75 44.5912 75.5848 44.7562 75.2139 45.1271C75.0285 45.3127 75.0285 45.663 74.8635 45.8486C74.8635 46.0341 74.6779 46.1991 74.6779 46.57C74.4924 46.9206 74.3274 47.4773 74.142 47.8277C73.9565 48.3636 73.6059 48.8995 73.4205 49.8068C73.07 50.8789 72.5133 52.157 72.3485 53.4147C72.1629 53.9508 72.1629 54.6723 71.9979 55.2085C71.9979 55.394 71.6473 55.9299 71.4618 55.9299C71.2764 55.9299 70.7405 55.7444 70.3899 55.5794C69.6685 55.2288 68.9467 55.2288 68.7612 54.322C68.225 54.5073 67.6891 54.8579 67.318 55.0435C67.1324 55.2288 66.9674 55.394 66.782 55.394C66.5965 55.5794 66.2459 55.5794 66.0606 55.5794C65.875 55.5794 65.875 55.5794 65.71 55.7649C65.5244 55.9503 65.3594 55.9503 64.9883 55.9503C64.6379 55.9503 64.4524 55.9503 64.0812 55.9503C63.5453 55.9503 62.8238 55.7649 62.2874 55.7649C61.9371 55.7649 61.566 55.7649 61.3804 55.5794C61.0298 55.394 60.8443 55.2288 60.6589 55.0435C60.1228 54.6929 59.5869 54.1362 59.2155 53.6003C58.8649 53.0643 58.6796 52.3426 58.494 51.6209C57.9581 51.9715 57.7725 52.3424 57.4219 52.8783C57.0716 53.2291 56.8858 53.7856 56.5149 54.3217C55.7934 55.2288 55.2573 56.1153 54.3502 56.837C53.6287 57.3729 52.1853 57.7441 51.1134 57.7441C48.9488 57.3937 47.6911 55.7649 46.5983 54.1362C45.8768 54.8576 44.9695 55.7649 43.8977 56.6514C43.176 57.1876 42.9904 57.5587 42.1039 57.909C41.5678 58.0944 41.0318 58.2594 40.4751 58.2594C40.1246 58.2594 39.939 58.2594 39.5679 58.074C39.3823 58.074 39.0317 58.0741 38.8464 57.8885C38.6608 57.7032 38.4958 57.5379 38.3102 57.167C38.1246 56.6311 37.9599 55.9096 37.7743 55.3732C37.7743 55.0227 37.7743 54.6518 37.7743 54.3014C37.7743 53.9508 37.7743 53.3941 37.9599 53.0438C38.1454 52.6934 38.3102 52.1365 38.3102 51.7861C38.4958 51.2502 38.6608 50.7143 39.0317 50.1576C39.2173 49.807 39.9388 48.9 39.7532 48.7144C39.7532 47.9929 38.4956 48.1782 38.1244 47.8071C37.5883 48.3433 37.2171 49.0647 36.8668 49.6009C36.6812 49.9515 36.5162 50.1368 36.3307 50.5079C36.1451 50.8585 35.9801 51.2296 35.7945 51.5802C35.6089 51.9306 35.2586 52.1161 35.073 52.4873C34.8875 52.8379 34.7227 53.2088 34.5371 53.5593C34.001 54.2808 33.8156 55.0025 33.2795 55.5387C32.9289 56.0746 32.3724 56.7961 31.8363 57.3322C31.3004 57.8684 30.5789 58.5899 29.8572 58.961C29.5068 59.1466 28.9501 59.1466 28.5998 59.1466C28.0636 59.1466 27.5277 59.3319 27.1566 59.3319C26.6206 59.5175 26.0845 59.5175 25.5278 59.5175C25.1775 59.5175 24.8063 59.1669 24.2702 59.1669C23.9198 58.9813 23.7342 58.9813 23.3631 58.8163C23.0125 58.6308 22.827 58.2804 22.6416 58.0949C22.4561 57.9095 22.291 57.7443 22.1055 57.5589C21.384 56.3013 21.1984 54.487 21.1984 52.6934C20.1264 52.5079 18.8482 52.5079 17.7761 52.3428C17.5905 52.3428 16.8688 54.8581 16.8688 55.2293C16.5185 56.3013 16.3329 57.2086 16.1473 58.3012C16.1473 58.6518 15.9618 59.2085 15.9618 59.5589C15.9618 59.7442 15.7762 59.9094 15.7762 60.0948C15.2401 61.7233 14.7041 63.1667 14.1474 64.7747C14.1474 65.1253 13.9619 65.3106 13.7969 65.4962C13.6113 65.8468 13.2607 65.6818 12.8898 65.8468C12.7042 65.8468 12.7042 66.0323 12.5392 66.0323C12.3742 66.0323 12.1889 65.8468 12.1889 65.6818C12.0033 65.3312 12.1889 64.7745 12.1889 64.4241C12.1889 63.8882 12.0033 63.1667 12.0033 62.445C12.0033 61.9089 12.1889 61.373 12.1889 61.0018C12.1889 60.2803 12.3744 59.5586 12.5392 58.8369C12.7248 57.7651 12.7248 56.4869 13.0754 55.4146C13.2609 54.3425 13.6115 53.2499 13.7969 52.3426C11.6322 52.5282 9.46748 53.0643 7.67371 53.7858C7.48814 53.9714 7.48814 54.322 7.32314 54.6931C7.13757 55.0437 6.97279 55.6002 6.78699 55.9505C6.60142 57.2081 6.25108 58.4658 6.06551 59.744C6.06551 60.4655 5.87994 61.0016 5.71494 61.7231C5.36437 63.3519 4.99345 64.9598 4.64288 66.7744C4.64288 66.9597 4.64288 67.125 4.45731 67.3103C4.27174 67.4959 4.10674 67.4959 3.92117 67.6609C3.7356 67.8465 3.7356 68.3824 3.38502 68.3824C4.29231 68.0318 3.5706 67.6609 3.5706 67.6609C3.38503 67.4753 3.38502 67.125 3.38502 66.9394C3.19945 66.4035 3.19945 65.8673 3.38502 65.3106C3.38502 64.4036 3.57059 63.6821 3.73559 62.7956C3.73559 62.2594 3.92117 61.8883 3.92117 61.3522C4.27174 59.1875 4.27174 57.0228 4.82823 55.0437C4.29231 55.229 3.38503 55.5796 2.66354 55.3942C2.31319 55.2087 1.59148 54.6728 1.40591 54.1366C1.22034 53.7861 1.05556 53.2296 1.05556 52.6934C1.05556 52.5079 0.869995 52.1575 0.869995 51.9719C0.869995 51.7864 1.05556 51.7864 1.22057 51.7864C1.57114 51.9719 1.75671 51.7864 2.12785 51.601C2.4782 51.601 2.84933 51.4154 3.19991 51.4154C3.92139 51.2301 4.82868 50.8795 5.55016 50.5082C5.73573 49.9722 5.73573 49.2508 5.90051 48.529C6.25108 47.0858 6.43665 45.8284 6.80779 44.3852C6.99336 43.8491 6.99336 43.1276 7.15813 42.5915C7.15813 42.4059 7.15813 42.2409 7.15813 42.0553C7.15813 41.87 7.15813 41.705 7.15813 41.5194C7.15813 41.3338 7.34371 40.9835 7.34371 40.7979C7.52928 40.2618 7.69428 39.7259 7.69428 39.3547C7.87985 38.0971 8.04486 36.6539 8.41577 35.2107C8.76612 33.9533 9.32282 32.6955 9.48782 31.4173C9.48782 30.8813 9.48783 30.3454 9.6734 29.7887C9.6734 29.4381 10.0237 29.2528 10.0237 29.0672C10.0237 28.8816 10.0237 28.5313 10.0237 28.1599C10.5599 25.8099 11.4669 23.48 12.0029 21.1297C12.0029 20.7792 12.1884 20.4082 12.1884 20.2227C12.1884 19.8721 12.1884 19.501 12.374 19.3154C12.5596 18.9648 12.7246 18.5939 12.7246 18.4083C12.9101 17.6869 13.0749 16.9654 13.0749 16.2436C13.2605 15.8931 13.2605 15.5222 13.4255 15.1716C13.6111 14.8212 14.3325 15.1716 14.4975 15.1716C14.6625 15.1716 14.8481 15.3572 15.0337 15.3572C15.3843 15.5427 15.5698 15.5427 15.7552 15.7077C15.9407 15.8933 16.1057 16.0583 16.2913 16.2439C16.6419 16.5942 17.0128 16.9656 17.1986 17.5015C17.3842 17.8521 17.3842 18.223 17.3842 18.5736C17.3842 18.9239 17.0336 19.2951 17.0336 19.6456C16.683 20.5527 16.4975 21.4394 16.3121 22.3464C15.4051 24.6967 14.6833 27.3978 13.7969 29.9128C13.6113 30.2634 13.4463 30.8201 13.4463 31.1704C13.0959 32.2425 13.0959 33.5207 12.7248 34.5927C12.5392 35.1289 12.3742 35.5 12.1887 36.2215C12.0031 36.7577 11.8383 37.2936 11.8383 37.8503C11.3022 40.5509 10.7663 43.0869 10.0445 45.7875C10.2098 46.5481 9.48805 47.8055 9.32328 49.2487ZM110.798 24.1997C110.076 25.8284 109.355 27.2716 108.819 29.251C108.633 29.4363 108.633 29.7869 108.633 29.9722C108.633 30.6937 106.469 35.9304 106.654 36.6315C107.19 35.91 109.004 30.5084 109.355 29.7869C109.355 29.6013 109.355 29.6013 109.355 29.6013C110.076 27.9723 110.612 26.1788 110.798 24.1997ZM30.0427 44.1976C28.9707 45.2697 28.0636 46.3623 27.1563 47.4344C26.9708 47.6197 26.6202 47.9703 26.6202 48.3417C28.7853 47.9911 30.2283 46.3623 30.0427 44.1976C30.2283 44.1976 30.2283 44.1976 30.0427 44.1976ZM49.8759 53.9287C50.2265 54.1142 50.5974 54.4648 50.783 54.4648C50.9686 54.4648 51.5045 53.9287 51.6901 53.7431C52.226 53.2072 52.7621 52.4857 52.7621 51.9496C52.7621 50.1558 52.226 47.9911 52.226 46.1768C52.226 46.1768 52.226 46.1768 52.0404 46.1768C50.4119 47.9705 49.6904 50.3208 48.2469 52.3001C48.5975 52.6505 48.7831 53.2072 49.154 53.5575C49.5048 53.5781 49.6906 53.7431 49.8759 53.9287ZM91.3359 46.7129C92.0574 46.5273 94.9438 43.8265 94.7582 42.033C93.4798 41.6824 91.6865 46.012 91.3359 46.7129Z" fill="#231F20"/>
<path d="M52.9271 0.943949C52.9271 1.85101 53.2774 2.7375 53.2774 3.83035C53.8136 3.83035 55.0712 3.29421 54.9062 4.18069C54.9062 4.71684 53.8341 4.53127 53.2774 4.71684C53.2774 5.7889 53.4632 6.88153 53.628 7.95359C54.1641 7.95359 55.6071 7.41744 55.7929 7.95359C55.9785 8.67507 53.2776 8.67506 52.9065 8.48972C52.5562 6.13946 52.3704 3.08807 52.3704 0.552246C52.7209 0.366675 53.628 0.36667 54.1641 0.201668C54.5145 0.201668 54.8856 0.0160939 54.8856 0.387235C55.0918 0.943946 53.4838 0.758604 52.9271 0.943949Z" fill="#231F20"/>
<path d="M58.6996 0.758709C58.349 0.222567 57.4422 0.57291 57.2566 1.10905C57.0711 1.45962 57.0711 2.01611 57.2566 2.36669C57.4422 2.9026 58.1637 3.43875 58.5143 4.16023C59.2357 5.06751 59.7717 6.13935 59.2358 7.58254C58.6996 8.30426 57.2566 8.6546 56.5349 7.58254C56.3494 7.23197 55.8132 5.06751 56.7205 5.06751C57.442 5.06751 56.7205 7.41777 57.7926 7.41777C58.3285 7.41777 58.8644 7.06743 58.8644 6.34571C58.679 4.55217 56.6997 3.83067 56.5141 1.83076C56.5141 1.48019 56.5141 1.10928 56.8647 0.758709C57.5862 -0.49892 59.38 -0.14857 59.38 1.4802C59.38 1.66577 59.38 2.20169 59.0294 2.20169C58.8438 2.20169 58.8438 1.85134 58.8438 1.66555C58.8854 1.29463 58.8854 1.12962 58.6996 0.758709Z" fill="#231F20"/>
<path d="M64.1013 0.944067C63.7508 1.29441 63.0295 0.944067 62.6581 0.944067C62.6581 2.92318 62.6581 4.9023 62.4728 6.90221C62.4728 7.08778 62.4728 7.43835 62.4728 7.6237C62.4728 7.97427 62.4728 8.34519 61.9366 8.34519C61.5861 7.99461 61.7513 7.43812 61.7513 7.08755C61.9366 5.10844 61.9366 2.94376 62.1016 0.964416C62.1016 1.14999 61.0298 0.964416 60.8442 0.964416C60.6589 0.964416 60.3083 0.778835 60.4937 0.614059C60.4937 0.428489 61.0298 0.428492 61.2152 0.428492C61.7513 0.428492 62.1224 0.428492 62.6584 0.428492C63.2148 0.222579 64.2869 0.222581 64.1013 0.944067Z" fill="#231F20"/>
<path d="M68.9669 8.51038C69.1525 8.69595 69.3175 9.04652 69.503 9.23187C69.6884 9.41744 69.8534 9.58244 70.039 9.76801C70.3895 9.95358 70.7604 9.95359 70.946 10.1186C71.6675 10.3042 72.3894 10.6547 73.1109 10.6547C73.4613 10.8403 74.018 10.8403 74.3683 10.8403C75.9971 11.0259 77.6051 11.0259 79.2338 11.1909C80.6768 11.3764 82.1203 11.727 83.5632 12.0979C85.357 12.6341 87.5217 13.3553 88.9646 14.6132C89.15 14.7987 90.2221 15.8708 89.5006 16.242C88.9647 16.4275 88.7791 15.5205 88.5935 15.3349C88.0574 14.7988 87.3359 14.6134 86.7997 14.2628C86.0782 13.9125 85.3565 13.7269 84.6348 13.3556C83.0063 12.8196 81.3983 12.4485 79.7695 12.0982C77.0687 11.7476 74.1823 11.7476 71.8323 11.0261C70.7602 10.6757 69.482 10.4902 68.9457 9.39732C68.7603 9.21175 68.7603 9.04674 68.5953 8.86117C68.5953 8.6756 68.5953 8.51061 68.4097 8.51061C68.2242 8.51061 68.0592 8.51061 68.0592 8.51061C67.8738 8.51061 67.8738 8.32504 67.7086 8.32504C67.1727 7.9747 66.8015 7.41798 66.8015 6.88184C66.616 5.80978 67.1521 3.80987 67.3375 2.73804C67.523 1.83098 67.523 0.944492 68.0589 0.573125C68.4095 0.222779 69.6877 0.222783 70.0383 0.387558C70.3889 0.55256 70.7598 1.29483 70.7598 1.64518C70.7598 2.18132 70.5742 2.90258 70.5742 3.62429C70.3889 4.69658 70.2236 5.60364 70.0383 6.51069C69.5236 7.60332 69.338 8.1598 68.9669 8.51038ZM67.3589 5.27341C67.1734 6.34547 67.1734 7.78866 68.0802 7.78866C68.9875 7.97423 68.9875 7.25253 68.9875 6.53104C69.173 5.45898 69.5236 4.36636 69.5236 3.10873C69.5236 2.75816 69.709 2.38723 69.709 2.03666C69.709 1.68609 69.3586 1.1296 68.9875 1.1296C68.6371 0.944034 68.0802 0.944031 67.9156 1.47995C67.7301 1.83052 67.9156 2.20144 67.7301 2.55202C67.7301 2.90236 67.5445 3.45907 67.5445 3.80942C67.5443 4.36658 67.3589 4.71692 67.3589 5.27341Z" fill="#231F20"/>
<path d="M51.3191 8.51027C50.5976 9.04642 50.2471 8.3247 49.8759 7.60322C49.3398 6.53093 48.6183 4.90239 48.2472 3.99534C48.2472 5.0674 48.4327 6.34559 48.5977 7.41765C48.5977 7.76822 48.9483 8.67528 48.2472 8.67528C47.7112 8.67528 47.7112 6.88151 47.5257 6.32503C47.3401 4.88205 47.3401 3.6242 46.9897 2.18122C46.9897 1.99565 46.9897 1.64508 46.9897 1.45973C46.9897 1.10916 47.1753 0.738028 47.5257 1.10917C47.8762 1.29474 48.0618 1.64531 48.2472 2.01623C48.7833 3.45942 49.3192 4.90262 50.0409 6.3456C50.0409 5.43854 49.8554 4.55204 49.8554 3.27385C49.8554 2.55236 49.3194 0.573029 50.2059 0.758825C50.5565 0.944395 50.5565 1.29474 50.5565 1.83088C50.7624 3.83034 51.3191 6.16002 51.3191 8.51027Z" fill="#231F20"/>
<path d="M72.2242 1.12939C72.4098 1.12939 72.4097 1.47975 72.5747 1.66532C72.5747 2.01589 72.5748 2.38681 72.3894 2.57238C72.2038 3.64466 72.0388 4.92263 71.8533 6.18026C71.8533 6.7164 71.6677 7.25254 71.6677 7.62346C71.8533 8.1596 72.3894 8.53051 72.9253 8.53051C73.8326 8.34494 73.8326 7.08731 73.9974 6.01548C74.1827 4.94319 74.348 4.22171 74.5333 2.94351C74.5333 2.40737 74.7189 1.68589 75.0694 1.68589C75.4198 1.68589 75.2548 2.59317 75.2548 3.31466C75.0694 4.57206 74.9042 5.47934 74.7189 6.5514C74.5333 7.80881 74.3683 8.90165 73.2757 9.25222C72.018 9.60257 70.7604 8.71608 70.9254 7.27288C70.9254 6.55139 71.276 5.64412 71.4613 4.92263C71.6469 4.01558 71.6469 3.29385 71.8119 2.40736C71.8533 2.01588 72.0388 1.2944 72.2242 1.12939Z" fill="#231F20"/>
<path d="M46.9898 8.86066C46.268 9.21123 46.2681 7.7886 46.0825 7.23189C45.7319 5.78892 45.7319 4.53129 45.361 3.08809C45.361 2.73774 45.1754 2.36659 45.1754 2.01602C45.1754 1.83045 44.9898 1.29453 45.361 1.10896C45.7116 0.758615 45.8971 1.64511 45.8971 1.83045C45.8971 2.0158 45.8971 2.3666 46.0827 2.55194C46.2683 3.459 46.4331 3.99514 46.4331 4.9022C46.4536 6.53097 47.1753 7.97417 46.9898 8.86066Z" fill="#231F20"/>
<path d="M42.1241 2.73784C42.4746 3.64512 42.6602 4.5316 42.8455 5.43866C43.1961 5.43866 44.6393 4.53161 45.0102 5.25309C45.1958 5.97458 43.5673 5.97458 43.2167 6.16015C43.2167 6.88164 43.4023 7.41779 43.7528 8.13927C43.9384 8.67542 44.2887 9.76804 43.5673 9.76804C43.0311 9.76804 42.8455 8.32483 42.66 7.78892C42.66 7.43834 42.66 7.06744 42.4744 6.88164C42.1238 5.43844 41.4023 3.45932 41.4023 2.01612C41.9385 2.01612 42.8455 1.47998 43.5673 1.47998C43.9176 1.47998 44.2887 1.47998 44.1032 2.01612C43.9176 2.55227 42.4746 2.38749 42.1241 2.73784Z" fill="#231F20"/>
<path d="M77.8115 7.78899C77.4609 7.60342 77.09 7.43842 76.7394 7.25285C76.5538 7.60342 76.3888 7.97433 76.0179 8.51025C75.8323 8.69582 75.8323 8.86082 75.6673 9.04639C75.6673 9.23196 75.482 9.23196 75.482 9.23196C74.9458 9.41753 74.9459 8.88161 75.1314 8.51047C75.3168 8.13933 75.482 7.78899 75.6673 7.43842C76.5746 5.80965 77.1105 3.83054 78.0176 2.20177C78.5535 1.85142 78.3682 2.73791 78.3682 3.27382C78.3682 3.62417 78.3682 3.9953 78.5535 4.53144C78.5535 5.97464 78.3682 7.60341 78.3682 8.67525C78.3682 9.21139 78.3682 9.74731 78.0176 9.93288C77.2753 10.1392 77.8115 8.32491 77.8115 7.78899ZM76.9042 6.7167C77.2548 6.90227 77.4401 7.06728 77.8115 7.06728C77.997 6.34557 77.997 5.08794 77.8115 4.18088C77.6259 4.90259 77.2753 5.80965 76.9042 6.7167Z" fill="#231F20"/>
<path d="M81.4193 2.92322C81.234 5.27348 80.3473 7.43839 79.9761 9.58228C80.3267 9.93285 81.9555 9.93286 81.7699 10.6543C81.7699 11.3758 80.6978 10.6543 80.5123 10.6543C79.9763 10.4688 79.2549 10.4688 79.0691 10.1182C78.8837 9.76763 79.2546 8.86057 79.4196 8.32443C79.7702 6.69566 80.4917 4.3662 80.8628 3.08778C81.0482 3.1088 81.234 2.73765 81.4193 2.92322Z" fill="#231F20"/>
<path d="M35.8156 3.9954C36.0012 4.90246 36.3518 5.78916 36.5371 6.69622L37.6092 6.34564C37.7948 6.34564 37.9598 6.16008 38.1453 6.16008C38.4957 6.16008 38.6812 6.51043 38.3309 6.88157C37.9803 7.06714 37.6094 7.23191 37.2588 7.23191L36.7229 7.41748C36.9085 8.32453 37.4444 9.21126 37.63 10.1183C38.537 9.93274 39.2585 9.39683 40.1452 9.58217C40.4956 10.1183 39.6091 10.3039 39.073 10.4894C38.3515 10.675 37.4442 11.2109 37.0938 10.4894C36.9083 10.1389 36.7433 9.41716 36.5577 8.86068C36.0216 7.23191 35.3001 5.2528 35.1145 3.45925C35.6504 3.27368 36.9083 2.55219 37.4648 2.73776C37.6503 2.73776 37.8153 2.92333 37.8153 2.92333C37.9803 3.83061 36.166 3.83062 35.8156 3.9954Z" fill="#231F20"/>
<path d="M84.8418 3.83057C85.1924 4.01614 85.0271 4.55205 84.8418 4.73762C84.4912 6.36639 84.1201 7.97437 83.5841 9.60314C83.3986 10.1393 83.2336 11.5823 82.5121 11.2319C82.1615 10.6958 82.6977 10.1598 82.8627 9.43836C83.2132 8.36608 83.5842 6.9231 83.9347 5.6449C84.1198 4.90262 84.3056 4.18091 84.8418 3.83057Z" fill="#231F20"/>
<path d="M87.893 5.43802C87.7074 6.69565 86.9857 7.78829 86.6354 8.86034C86.45 9.39649 86.45 9.9324 86.285 10.4891C86.0994 10.8395 85.9344 11.9321 85.5635 11.9321C84.842 11.9321 85.378 10.6747 85.5635 10.3035C86.0994 8.50976 86.8209 6.88099 87.3573 5.25245C87.3573 5.25245 86.6356 4.90189 86.45 4.90189C86.2644 4.90189 86.2644 4.71631 86.0994 4.71631C86.0994 4.71631 85.9139 4.18018 86.0994 4.18018C86.6353 4.18018 87.1715 4.36573 88.0788 4.71631C88.6147 4.90188 89.3362 5.06688 89.3362 5.4378C89.5215 6.34508 88.2639 5.62359 87.893 5.43802Z" fill="#231F20"/>
<path d="M35.2794 9.9534C35.465 10.139 35.465 10.4895 35.63 10.6749C35.8156 11.0252 35.9803 11.5819 35.4444 11.5819C34.9083 11.7675 34.9083 10.8605 34.7229 10.3243C34.5376 9.78817 34.0012 8.88112 34.0012 8.3452C33.4651 8.53077 33.0942 8.69578 32.558 8.69578L33.0942 10.3245C33.2797 10.6751 33.2797 10.8607 33.4447 11.2316C33.4447 11.5822 33.7951 12.1387 33.2592 12.1387C32.9086 12.1387 32.723 11.6025 32.723 11.2316C32.5375 10.5101 32.0015 9.60284 31.816 8.71635C31.4654 7.80929 31.2798 6.92279 31.0943 6.01551C31.0943 5.82994 30.7439 5.29402 30.9087 5.10845C31.0943 4.57231 31.6302 5.45903 31.6302 5.6446C31.8157 5.83017 31.8158 6.18052 31.8158 6.36609C32.0013 6.90223 32.3519 7.43837 32.3519 7.99486C32.8878 7.99486 33.424 7.6445 33.9804 7.45893C33.7949 6.73745 33.6301 6.38688 33.4445 5.4796C33.259 4.94346 32.9084 4.03662 33.4445 4.03662C33.7949 4.03662 33.9804 4.75811 33.9804 4.94368C34.166 5.29425 34.166 5.85097 34.331 6.20131C34.5166 6.73746 34.6816 7.45894 34.8672 7.99486C35.0527 8.34543 35.0527 8.531 35.2175 8.90191C35.0939 9.58226 35.0939 9.76783 35.2794 9.9534Z" fill="#231F20"/>
<path d="M90.0576 5.62388C90.243 5.62388 90.243 5.62388 90.0576 5.62388C90.243 5.97445 90.0576 6.53093 90.243 6.69593C90.243 7.41742 90.243 7.95356 90.4286 8.67505C90.7791 8.32447 91.5006 7.95356 92.0573 7.60299C92.2427 7.41742 92.4079 7.06685 92.5932 6.88128C92.7788 6.69571 93.1292 6.53071 93.3147 6.69571C93.5003 7.04606 92.9642 7.60299 92.7788 7.76777C92.0573 8.48925 90.985 9.21097 90.2636 10.118C90.078 10.8395 89.7274 11.9118 89.3563 12.8189C89.1709 13.1692 89.1709 13.8909 88.4492 13.5403C88.4492 12.6333 88.9851 11.5612 89.3563 10.6539C89.5418 9.93245 89.7068 9.39631 89.7068 8.13868C89.7068 7.78834 89.5213 7.23141 89.5213 6.88106C89.5213 6.53049 89.5213 5.97399 89.7068 5.80899C89.8924 5.4383 90.0576 5.43831 90.0576 5.62388Z" fill="#231F20"/>
<path d="M28.5997 6.71691C29.1356 7.97454 29.8571 9.95366 30.5788 11.5824C30.7643 12.1183 31.4861 13.2112 30.7643 13.3762C30.2282 13.5618 30.0426 12.4689 29.8571 11.933C29.1356 10.3045 28.5997 8.69626 28.0635 7.06771C27.5274 7.25328 27.1562 7.60385 26.6203 7.41806C26.4347 6.88191 27.342 6.69657 27.8779 6.346C28.4141 6.16043 29.1356 5.62451 29.5067 5.62451C29.6923 5.62451 30.0426 5.62452 30.0426 5.97509C29.8571 6.34578 28.9708 6.34577 28.5997 6.71691Z" fill="#231F20"/>
<path d="M54.2056 27.4365C55.2776 27.4365 56.5558 27.4365 57.4423 27.4365C57.4423 27.7871 57.6277 28.158 57.4423 28.5086C57.2567 28.6939 56.7208 28.5086 56.3703 28.5086C56.3703 30.4879 56.3703 32.8379 56.3703 35.0026C56.1847 35.1882 55.463 35.1882 55.2982 35.0026C55.2982 32.8379 55.2982 30.6733 55.2982 28.3436C54.9476 28.3436 54.3909 28.3436 54.0406 28.3436C54.02 28.3438 53.8344 27.6221 54.2056 27.4365Z" fill="#231F20"/>
<path d="M60.8646 27.6219C60.8646 29.9719 60.8646 32.8585 60.8646 35.1882C60.6793 35.3738 60.1434 35.1882 59.7928 35.1882C59.6072 34.2809 59.7928 32.838 59.7928 31.7657C59.6072 31.5803 59.2566 31.7657 59.0713 31.7657C59.0713 32.8377 59.2566 34.2809 59.0713 35.1882C58.7207 35.1882 58.164 35.3738 57.9992 35.0026C57.8137 32.6526 57.9992 29.9516 58.1846 27.6221C58.5352 27.4365 58.9063 27.6221 59.2566 27.6221C59.2566 28.5294 59.2566 29.6012 59.2566 30.5085C59.4422 30.6938 59.7928 30.5085 59.9781 30.5085C59.9781 29.6012 59.7928 28.3438 59.9781 27.4365C60.1431 27.6219 60.5143 27.6219 60.8646 27.6219Z" fill="#231F20"/>
<path d="M64.6581 27.7871C64.6581 27.9725 64.8435 28.5086 64.6581 28.6942C64.3076 28.8798 63.7508 28.6942 63.4007 28.6942C63.2152 29.2303 63.4007 30.1376 63.4007 30.6735C63.7511 30.6735 64.3078 30.6735 64.6581 30.6735C64.6581 30.8591 64.8435 31.395 64.6581 31.5808C64.4726 31.7662 63.9366 31.5808 63.5861 31.7662C63.4007 32.4877 63.5861 33.2094 63.5861 33.9309C63.9366 33.9309 64.4933 33.9309 64.8435 33.9309C64.8435 34.1164 65.0293 34.467 64.8435 34.8381C63.9364 35.0237 63.2149 35.0237 62.3284 34.8381C62.3284 33.2094 62.1429 31.6014 62.1429 29.9726C62.1429 29.2514 61.9575 28.3441 62.3284 27.6226C62.6582 27.6222 63.9364 27.6221 64.6581 27.7871Z" fill="#231F20"/>
<path d="M61.9367 61.1442C62.844 60.9589 63.1943 61.6804 63.3799 62.4019C63.5655 63.4737 63.3799 64.5665 63.3799 65.4736C63.3799 65.8242 63.3799 66.1951 63.3799 66.3809C63.3799 66.917 63.5655 67.4529 63.1945 68.0096C62.844 68.3602 62.2873 68.7311 61.7514 68.7311C61.4008 68.7311 60.6793 68.5456 60.4937 68.3806C59.9578 67.8446 60.1434 64.2365 60.1434 62.9791C60.5143 62.0513 60.8646 61.3298 61.9367 61.1442ZM62.4934 62.4019C62.4934 62.2163 62.3081 62.2163 62.3081 62.2163C61.9575 62.0309 61.7719 62.2163 61.5863 62.5669C61.401 63.1028 61.5863 64.5462 61.5863 65.4533C61.5863 65.8038 61.5863 66.1747 61.5863 66.5253C61.5863 67.0612 61.5864 67.4326 61.7719 67.9685C61.7719 68.1541 61.9575 68.1541 62.1225 68.1541C62.6584 68.1541 62.6584 67.8035 62.6584 67.4326C62.844 67.082 62.844 66.5253 62.844 65.9894C62.844 65.2679 62.844 64.3606 62.844 63.6391C62.844 63.4536 62.844 63.2886 62.844 62.9177C62.4934 62.5874 62.4934 62.4019 62.4934 62.4019Z" fill="#231F20"/>
<path d="M59.2358 64.2164C58.8853 64.2164 58.5143 64.2164 58.3285 64.031C58.1432 63.8454 58.1432 63.4949 58.1432 63.3093C58.1432 62.9587 58.3285 62.4023 57.7926 62.2375C57.2565 62.0519 57.0711 62.7734 57.0711 63.1445C57.0711 63.6807 57.0711 64.9383 57.0711 65.8454C57.0711 66.5669 56.8856 67.6391 57.4215 67.8245C58.4936 68.1751 57.9576 66.5671 58.3285 65.8454C58.5141 65.8454 59.05 65.8454 59.2358 65.8454C59.4214 66.7527 59.4214 68.1954 58.8852 68.546C58.1638 69.2675 56.535 68.8965 56.1844 68.1954C55.9989 68.0101 55.9989 67.6595 55.9989 67.2883C55.8133 65.6596 56.1844 63.3299 56.1844 62.0517C56.535 61.1444 57.4421 60.9796 58.3491 61.1444C58.5347 61.1444 58.6997 61.33 58.8852 61.495C59.0708 61.6805 59.2358 61.8456 59.2358 62.0311C59.2358 62.2165 59.2358 62.567 59.2358 62.7526C59.4216 62.7732 59.2358 64.2164 59.2358 64.2164Z" fill="#231F20"/>
<path d="M34.3724 63.6597C34.1868 63.6597 33.6507 63.8452 33.6507 63.6597C33.4651 63.3091 33.8362 62.5876 33.4651 62.4023C32.393 61.8661 32.393 63.3093 32.9289 64.031C33.4651 64.7525 34.5577 65.6596 34.5577 66.9174C34.5577 67.8245 34.3721 69.0821 33.1145 69.0821C31.6713 69.0821 31.6713 67.4534 31.8569 66.3813C32.0425 66.3813 32.393 66.1957 32.7639 66.3813C32.9495 66.9174 32.5784 68.01 33.3001 68.01C33.6504 67.8245 33.6504 67.1028 33.6504 66.7526C33.6504 66.5671 33.4649 66.2165 33.3001 66.0312C32.9495 65.3094 32.0425 64.5877 31.8569 64.0518C31.6713 63.3303 31.8569 62.258 32.2075 61.8871C32.5578 61.5366 33.6504 61.351 34.3721 61.5366C34.5579 61.6806 34.5579 62.938 34.3724 63.6597Z" fill="#231F20"/>
<path d="M36.3514 61.4948C36.537 62.2163 36.3514 63.1235 36.3514 64.1956C36.3514 65.2677 36.1658 66.3603 36.3514 67.082C36.3514 67.6179 36.7018 68.3394 37.4235 67.9893C37.774 67.082 37.609 66.0099 37.609 64.7525C37.609 63.6805 37.609 62.4023 37.609 61.5158C37.7946 61.3302 38.3305 61.3302 38.5161 61.5158C38.5161 62.7732 38.5161 64.031 38.5161 65.474C38.5161 66.3813 38.7017 67.4534 38.3305 68.3606C37.98 69.2677 36.3514 69.4325 35.6297 68.711C35.4441 68.3607 35.2791 67.6392 35.0936 66.9174C35.0936 66.1957 35.0936 65.1237 35.0936 64.0311C35.0936 63.1238 34.908 61.6808 35.4441 61.5158C35.8155 61.3298 36.1658 61.3298 36.3514 61.4948Z" fill="#231F20"/>
<path d="M50.7625 61.495C51.1131 62.2165 51.2986 63.1238 51.6695 63.8452C52.0201 63.1238 52.391 62.402 52.5766 61.495C52.7622 61.495 53.2983 61.3096 53.4839 61.495C53.4839 62.0311 53.1333 62.7526 52.9477 63.2888C52.7622 63.8249 52.226 64.5464 52.226 65.0825C52.0404 66.3399 52.5766 67.5978 52.226 68.876C52.0404 68.876 51.6901 68.876 51.319 68.876C51.319 67.8039 51.319 66.7111 51.319 65.804C51.319 65.6184 51.319 65.2681 51.319 65.0825C51.319 64.732 50.9684 64.361 50.9684 64.1752C50.7828 63.8247 50.7828 63.4537 50.6178 63.1032C50.4323 62.5673 50.0819 62.1961 50.2675 61.4746C50.041 61.33 50.4121 61.495 50.7625 61.495Z" fill="#231F20"/>
<path d="M68.0802 61.3296C68.6163 61.3296 68.9875 61.3296 69.5236 61.3296C70.2451 61.3296 70.5956 61.5152 70.781 62.2369C70.9666 62.7728 70.9666 63.4943 70.9666 64.216C70.9666 64.4016 70.781 64.7521 70.616 65.1233C70.9666 65.3086 70.8013 65.8447 70.9666 66.5665C70.9666 67.4735 71.3169 68.7312 70.4304 69.0817C69.8945 69.2671 68.8019 69.0817 68.0802 69.0817C67.8948 66.5454 67.8948 63.8448 68.0802 61.3296ZM69.1527 62.2161C69.1527 62.9376 69.1527 63.6593 69.1527 64.5663C69.338 64.5663 69.5032 64.5663 69.6886 64.5663C69.8742 64.5663 70.0392 64.3808 70.0392 64.0304C70.0392 63.4943 70.2245 62.7728 69.8536 62.4017C69.5236 62.4017 69.338 62.2161 69.1527 62.2161ZM70.0595 65.6386C70.0595 65.6386 70.0595 65.4531 69.8742 65.4531C69.6886 65.4531 69.1527 65.1025 69.1527 65.4531C69.1527 66.1745 69.1527 67.0818 69.1527 67.8033C69.338 67.9889 69.8742 67.8033 70.0597 67.8033C70.0597 67.8033 70.0597 66.7313 70.0597 66.5457C70.0595 66.3601 70.2453 66.0095 70.0595 65.6386Z" fill="#231F20"/>
<path d="M75.1105 65.288C75.6467 65.6386 75.1105 67.9888 75.6467 68.8959C75.2961 69.0814 74.7394 68.8959 74.3891 69.0814C74.0385 68.1742 74.5746 66.5662 74.2037 65.6589C74.0181 65.6589 73.8531 65.6589 73.6676 65.6589C73.4822 66.5662 73.6676 67.8236 73.6676 68.8956C73.317 68.8956 72.7605 68.8956 72.4102 68.8956C72.4102 66.5454 72.2246 63.8446 72.5957 61.6799C73.6676 61.4943 75.4821 61.3293 75.6675 62.4014C75.6467 63.1233 75.4611 64.7521 75.1105 65.288ZM73.482 62.4016C73.482 63.3087 73.482 64.0304 73.482 64.7518C73.6673 64.7518 74.2035 64.7518 74.2035 64.5663C74.2035 64.3807 74.2035 64.2157 74.2035 64.0303C74.2035 63.8448 74.2035 63.6798 74.2035 63.4942C74.2035 63.3086 74.2035 63.1436 74.2035 62.7727C74.2035 62.5872 74.2035 62.4222 74.2035 62.2368C74.2035 62.216 73.6673 62.4016 73.482 62.4016Z" fill="#231F20"/>
<path d="M84.656 68.8966C84.4705 68.3607 84.4705 67.6392 84.4705 67.1028C84.4705 65.3091 84.4705 63.1444 84.656 61.5158C85.5633 61.3303 86.8207 61.3303 87.1713 61.8662C87.3569 62.0517 87.3569 62.5877 87.3569 62.7735C87.3569 63.124 87.3569 63.6807 87.3569 64.0311C87.3569 64.9381 87.3569 65.8246 87.3569 66.7317C87.3569 67.2678 87.3569 67.8037 87.3569 68.1749C87.1713 69.2472 85.5633 69.0822 84.656 68.8966ZM85.5633 62.4023C85.5633 64.1961 85.5633 66.1955 85.5633 67.8037C85.9137 67.8037 86.2848 67.8037 86.4704 67.8037C86.285 66.175 86.6559 64.0103 86.285 62.5671C86.2848 62.4023 85.7487 62.5879 85.5633 62.4023Z" fill="#231F20"/>
<path d="M44.8248 65.4734C44.6393 66.5455 44.8248 67.8237 44.6393 68.896C44.4537 69.0816 43.9178 69.0816 43.7322 68.896C43.5466 66.7313 43.5466 63.8449 43.7322 61.6802C44.0828 61.6802 45.8969 61.3297 46.2472 61.6802C46.4328 61.8656 46.5978 62.4017 46.5978 62.4017C46.7834 63.1232 46.7834 64.917 46.2472 65.2881C45.8969 65.6387 45.361 65.4734 44.8248 65.4734ZM45.5465 62.5873C45.196 62.5873 44.8251 62.5873 44.6395 62.5873C44.6395 63.1234 44.6395 63.8449 44.6395 64.381C45.1756 64.381 45.361 64.3811 45.7115 64.1957C45.7319 63.6593 45.8969 62.9376 45.5465 62.5873Z" fill="#231F20"/>
<path d="M48.6183 61.4947C48.8039 63.2884 48.6183 65.6387 48.8038 67.6178C49.1542 67.6178 50.0615 67.4325 50.4326 67.8034C50.4326 68.154 50.4326 68.7105 50.4326 68.8755C49.7111 68.8755 48.4535 69.0608 47.9174 68.6899C47.9174 66.3396 47.7318 63.6388 48.1029 61.4741C48.0616 61.4947 48.4327 61.4947 48.6183 61.4947Z" fill="#231F20"/>
<path d="M77.9969 61.4949C78.1823 61.4949 78.1823 62.567 78.1823 62.7525C78.1823 63.2884 78.3678 64.0099 78.5328 64.5463C78.7184 65.0822 78.8834 65.6182 78.8834 66.1749C79.0688 66.7108 79.0688 67.2469 79.0688 67.618C79.0688 67.9686 79.4193 68.5253 79.2543 68.8757C78.9037 68.8757 78.5328 68.8757 78.347 68.6901C78.347 68.1542 78.1615 67.618 78.1615 67.2469C77.9761 67.0613 77.44 67.2469 77.0896 67.2469C77.0896 67.783 77.0896 68.5045 76.7391 68.8757C76.5535 68.8757 76.0176 68.8757 75.8318 68.8757C76.0174 66.5254 76.3679 63.8244 76.9038 61.4949C76.9038 61.4949 76.9038 61.3096 77.0894 61.3096C77.4402 61.4949 77.6258 61.4949 77.9969 61.4949ZM77.2752 66.1954C77.4608 66.1954 77.8114 66.1954 77.9969 66.1954C77.9969 65.4739 77.8114 64.7524 77.6464 64.0309C77.4402 64.7524 77.4402 65.4737 77.2752 66.1954Z" fill="#231F20"/>
<path d="M83.3984 61.6807C83.3984 62.7527 83.3984 64.0309 83.3984 65.4739C83.3984 66.7315 83.584 68.1747 83.2131 69.082C83.0275 69.082 82.4916 69.082 82.141 68.8964C81.9557 67.639 81.4196 66.1956 81.069 64.938C80.8836 66.1954 81.2546 67.6388 81.069 69.082C80.7186 69.2674 80.1617 69.082 79.9969 68.8964C79.8116 66.7318 79.9969 63.8454 79.9969 61.6807C80.3475 61.6807 80.7186 61.6807 81.069 61.6807C81.6051 62.7527 82.141 64.0309 82.3266 65.4739C82.512 64.4021 82.141 62.7733 82.512 61.6807C82.677 61.4951 82.8625 61.4951 83.3984 61.6807Z" fill="#231F20"/>
<path d="M39.9594 61.4948C40.8667 61.6804 41.5882 61.1443 42.3097 61.6804C42.6602 61.8658 43.0314 64.7524 42.6602 65.2883C42.3097 65.8242 41.5882 65.6389 41.0315 65.6389C40.8459 66.5459 41.0315 67.9891 40.8459 68.8756C40.6603 68.8756 40.1242 68.8756 39.9386 68.69C39.7738 66.3604 39.7738 64.0307 39.9594 61.4948ZM40.8667 64.381C41.217 64.381 41.5882 64.381 41.7737 64.1957C41.7737 63.6595 41.7737 63.1236 41.5882 62.5669C41.4026 62.3813 41.0523 62.3813 40.6811 62.3813C40.8667 63.1236 40.8667 63.8451 40.8667 64.381Z" fill="#231F20"/>
<path d="M65.1939 67.4532C65.1939 67.9894 65.3795 68.7106 65.0086 68.8964C64.6377 69.0822 64.2871 68.8964 64.1013 68.7109C64.1013 68.175 64.1013 67.639 64.1013 67.2679C64.4722 67.0821 64.8228 67.2679 65.1939 67.4532Z" fill="#231F20"/>
<path d="M62.6581 75.2048C63.0087 74.2975 62.1222 73.9471 61.5861 73.576C56.9061 73.0401 57.7929 78.9774 61.2357 79.163C62.6789 79.163 64.3075 78.4417 65.7507 77.9056C66.1013 77.7202 66.8227 77.555 67.1939 77.9056C67.5445 78.4417 66.8433 78.9776 67.0085 79.163C68.0804 79.5138 69.3588 77.9056 70.4309 78.0912C70.967 78.0912 71.6885 78.8126 71.1523 79.5344C83.0483 79.5344 94.5934 79.5344 106.84 79.5344C107.376 79.5344 108.819 79.349 109.004 79.7199C109.19 80.4414 107.211 80.0703 106.654 80.0703C74.7607 80.0703 41.7739 80.0703 9.13794 80.0703C8.6018 80.0703 6.62269 80.2559 6.78769 79.7199C6.78769 79.3694 8.41646 79.5344 8.7668 79.5344C20.6625 79.5344 32.3729 79.5344 44.1036 79.5344C44.1036 79.1838 43.5677 78.8129 43.918 78.2767C45.7118 77.7408 46.8044 79.184 48.2474 79.184C48.598 78.6481 47.3403 78.4625 47.7115 77.7408C48.0618 77.0193 49.8762 78.4623 50.4123 78.6481C51.4844 78.9987 53.1129 79.3696 54.3705 78.9987C55.9993 78.6481 57.0714 76.6484 56.3499 75.04C56.1643 74.5041 55.4426 73.7826 54.5561 73.5968C53.4841 73.5968 52.2059 74.1329 52.3912 75.3908C53.2985 75.3908 53.2985 74.4835 54.185 74.4835C55.8137 74.4835 55.8137 76.8335 54.3705 77.3699C52.5768 77.9058 51.2988 76.1125 51.6697 74.6691C52.0203 73.597 53.8346 72.6899 55.2776 73.2259C55.9991 73.4114 56.5352 74.1331 56.7208 74.6691C57.6279 76.6484 56.1847 78.2772 54.927 79.7204C56.1847 79.5348 57.6276 79.7204 59.0708 79.7204C58.3493 78.4627 56.9062 76.2978 57.999 74.4837C58.3493 73.7622 59.2564 73.2261 60.349 73.0405C61.0705 73.0405 62.3284 73.0405 62.8643 73.5764C64.3075 75.0196 62.8643 77.7205 61.0705 77.3699C59.6273 77.1843 59.277 74.4835 61.0705 74.4835C61.7717 74.6686 62.1222 75.0192 62.6581 75.2048Z" fill="#231F20"/>
<path d="M72.2241 84.0289C72.7603 86.5441 73.2962 88.8944 73.8529 91.2447C73.3167 91.2447 72.5955 91.2447 71.8738 91.2447C71.6882 90.8943 71.6882 90.3376 71.6882 89.9873C71.5026 89.8019 70.9667 89.9873 70.6161 89.9873C70.4306 90.3378 70.4306 90.8946 70.2656 91.4305C69.915 91.4305 68.8224 91.4305 68.4718 91.2449C69.0079 88.7296 69.3791 86.3796 70.1006 84.0291C70.7811 84.0289 71.8532 83.8639 72.2241 84.0289ZM70.9667 88.5441C71.1521 88.5441 71.1521 88.5441 71.3171 88.5441C71.3171 88.1935 71.3171 87.6368 71.1317 87.472C71.1315 87.8223 70.9667 88.0077 70.9667 88.5441Z" fill="#231F20"/>
<path d="M67.3589 84.214C67.3589 86.5642 67.5442 89.4506 67.3589 91.4297C66.8227 91.4297 66.2868 91.4298 65.9157 91.2442C65.7301 90.1724 65.9157 89.0797 65.9157 88.0074C65.5651 89.0797 65.194 90.3577 64.8434 91.2442C64.493 91.4298 63.9363 91.2442 63.4004 91.2442C62.8643 90.3371 62.6789 89.2651 62.4931 88.3578C62.3078 89.2651 62.4931 90.5225 62.3078 91.0586C61.9572 91.2439 61.2357 91.2439 60.8644 91.0586C60.8644 88.8939 60.679 86.0075 60.8644 84.0282C61.4005 83.8428 62.3078 84.0282 62.8437 84.0282C63.3796 85.1002 63.5652 86.729 64.1011 87.8217C64.6372 86.7496 64.8226 85.3064 65.3587 84.0282C65.9157 84.0284 66.6374 84.0284 67.3589 84.214Z" fill="#231F20"/>
<path d="M34.0012 84.2144C34.0012 84.5649 34.0012 85.1216 34.0012 85.6576C33.6506 85.6576 33.2797 85.6576 32.9291 85.6576C32.5788 87.6367 32.9291 89.2654 32.7435 91.2446C32.2076 91.2446 31.6715 91.2446 30.95 91.2446C30.7644 89.616 30.95 87.4513 30.95 85.6576C30.5994 85.472 30.2283 85.6575 29.5068 85.472C29.3212 85.1214 29.5068 84.5649 29.5068 84.2146C31.3006 84.2144 32.558 84.2144 34.0012 84.2144Z" fill="#231F20"/>
<path d="M46.8042 84.2142C47.7112 84.3996 49.1542 84.0287 49.8759 84.2142C51.8551 84.9357 50.783 87.8221 51.1333 90.3374C50.783 91.7806 48.0616 91.4094 46.6182 91.2444C46.6184 89.08 46.6184 86.5647 46.8042 84.2142ZM48.2472 85.6574C48.2472 87.1006 48.2472 88.5439 48.2472 89.9868C48.4327 89.9868 49.1542 89.9868 49.3192 89.8015C49.6696 88.7292 49.6696 86.5647 49.3192 85.6574C49.1542 85.6574 48.6183 85.6574 48.2472 85.6574Z" fill="#231F20"/>
<path d="M85.5633 84.2144C85.2127 85.4718 84.4912 86.3791 83.9345 87.4512C84.4704 89.0799 85.5632 89.8014 86.2847 91.2444C85.3775 91.2444 84.656 91.43 83.7693 91.2444C83.4189 90.7085 82.8622 89.987 82.5119 89.4508C82.3265 89.9867 82.5119 90.894 82.3265 91.2444C81.7904 91.2444 81.0689 91.2444 80.5327 91.2444C80.3472 89.0799 80.3472 86.3791 80.5327 84.0286C81.0686 84.0286 81.7901 84.0286 82.3265 84.0286C82.5119 84.5647 82.3265 85.2862 82.3265 85.8224C82.6769 85.1009 83.048 84.565 83.5839 83.8433C84.3056 84.2144 85.0271 84.2144 85.5633 84.2144Z" fill="#231F20"/>
<path d="M38.7017 87.4508C39.7737 87.9867 39.0522 90.1514 39.7737 91.0587C39.2378 91.244 38.1452 91.244 37.609 91.0587C37.0729 90.3372 37.9596 87.9867 36.7017 87.9867C36.5162 88.894 36.7017 90.1514 36.5162 91.0587C36.1656 91.0587 35.4441 91.244 34.8874 91.0587C34.7018 88.894 34.8874 86.1932 34.8874 84.2141C36.145 84.2141 38.3097 83.6782 38.8459 84.9356C39.4234 85.657 39.2378 87.1003 38.7017 87.4508ZM36.702 86.9144C37.0525 86.9144 37.2381 86.9145 37.4237 86.7291C37.4237 86.3785 37.4237 86.0076 37.2381 85.657C37.0525 85.4715 36.702 85.657 36.5166 85.4715C36.702 86.0076 36.702 86.3785 36.702 86.9144Z" fill="#231F20"/>
<path d="M78.5331 87.4508C79.6052 87.9867 78.8837 90.1514 79.6052 91.0587C79.069 91.244 77.9764 91.244 77.4402 91.0587C76.9043 90.3372 77.7908 87.9867 76.5332 87.9867C76.3476 88.894 76.5332 90.1514 76.3476 91.0587C75.9973 91.0587 75.2758 91.244 74.7191 91.0587C74.5335 88.894 74.7191 86.1932 74.7191 84.2141C75.9765 84.2141 78.1414 83.6782 78.6773 84.9356C79.2546 85.657 79.069 87.1003 78.5331 87.4508ZM76.5538 86.9144C76.9043 86.9144 77.0899 86.9145 77.2752 86.7291C77.2752 86.3785 77.2752 86.0076 77.0899 85.657C76.9043 85.4715 76.5538 85.657 76.3684 85.4715C76.5538 86.0076 76.5538 86.3785 76.5538 86.9144Z" fill="#231F20"/>
<path d="M43.9179 84.2144C44.454 85.1216 44.454 86.379 44.8249 87.6367C45.0105 88.8943 45.5464 89.9869 45.732 91.0592C45.3814 91.2445 44.6599 91.0592 43.9384 91.0592C43.7529 90.5231 43.5879 89.9872 43.4023 89.4304C43.2167 89.2449 42.8661 89.4304 42.495 89.4304C42.3094 89.9664 42.1447 90.5025 42.3094 91.0592C41.588 91.0592 40.8665 91.0592 40.3303 91.0592C40.6807 88.8945 41.2374 86.3793 41.9591 84.2146C42.4747 84.3999 43.1964 84.2144 43.9179 84.2144ZM42.6602 88.1728C42.8458 88.1728 43.0106 88.1728 43.0106 88.1728C42.825 87.8223 42.825 87.4513 42.825 87.1008C42.8458 87.4513 42.8458 87.8223 42.6602 88.1728Z" fill="#231F20"/>
<path d="M108.819 94.6667C108.819 95.5739 107.561 95.2026 106.654 95.2026C103.953 95.2026 101.252 95.2026 98.5516 95.2026C95.6652 95.2026 92.7791 95.0172 89.7277 95.2026C84.1407 95.3881 73.317 95.0172 65.9362 95.2026C65.9362 95.5531 66.2868 95.9243 66.1218 96.2749C65.7712 97.1819 64.1425 96.4602 63.421 96.0891C63.0704 97.5325 61.9778 96.2749 61.071 95.9037C60.5348 95.7182 59.8133 95.3678 59.0916 95.5531C58.3701 95.7387 57.834 97.1819 58.3701 97.9034C58.7207 98.4393 59.9989 98.8107 60.3492 97.7178C59.9989 97.5325 59.6277 98.254 59.0918 97.9034C58.3703 97.3675 59.0918 96.646 59.4424 96.646C59.9783 96.4604 60.8856 96.8313 60.8856 97.3675C61.4215 99.1613 58.7209 99.5322 57.9992 98.6249C57.0919 97.7176 57.8136 95.9243 58.7207 95.2023C57.9992 95.2023 57.0919 95.2023 56.3704 95.2023C56.556 95.9241 57.2775 96.2746 57.2775 96.9961C57.4631 98.4393 56.2054 99.3464 54.9272 99.161C54.0202 98.9752 53.6696 97.7176 54.2058 96.9961C54.7419 96.4602 56.3704 96.4602 56.1849 97.5323C55.9993 98.4393 55.1128 97.8826 54.5561 98.0682C54.9064 98.9752 56.5352 98.4187 56.5352 97.5323C56.7208 96.8108 55.9991 95.9035 55.4632 95.7385C54.02 95.3879 53.1129 97.5323 51.8553 96.8105C51.6697 96.625 51.5049 96.46 51.5049 96.0888C50.9688 96.8105 48.2682 96.8105 49.3402 95.1818C36.0013 95.1818 22.1265 95.1818 8.78735 95.1818C8.25121 95.1818 6.4371 95.3674 6.2721 94.9962C6.08653 94.4603 7.52973 94.6459 8.06587 94.6459C13.4673 94.2953 19.0545 94.6459 24.2912 94.6459C39.9804 94.6459 55.113 94.6459 70.8022 94.6459C75.1316 94.6459 80.5332 94.6459 82.8833 94.6459C85.0482 94.6459 89.192 94.6459 93.1504 94.6459C97.6656 94.6459 102.345 94.6459 106.84 94.6459C107.726 94.4811 108.447 94.3163 108.819 94.6667Z" fill="#231F20"/>
<path d="M56.1847 84.2144C56.3702 84.565 56.3702 85.4718 56.1847 85.8432C55.8343 85.8432 55.1126 86.0285 54.3909 85.8432C54.3909 86.1935 54.3909 86.5647 54.3909 86.915C54.927 86.915 55.6485 86.7297 56.1847 86.915C56.3702 87.2656 56.3702 87.9871 56.1847 88.3582C55.6485 88.5438 55.1126 88.5438 54.3909 88.5438C54.2053 88.8944 54.3909 89.4511 54.3909 89.8014C54.927 89.8014 55.6485 89.8014 56.1847 89.8014C56.3702 90.1517 56.3702 90.8732 56.1847 91.2444C55.2774 91.43 53.8344 91.2444 52.7623 91.4299C52.5768 89.2653 52.5768 86.3789 52.7623 84.2142C53.8344 84.0288 55.2774 84.0288 56.1847 84.2144Z" fill="#231F20"/>
</g>
<defs>
<clipPath id="clip0_157_471">
<rect width="113.014" height="99.1851" fill="white" transform="translate(0.869995)"/>
</clipPath>
</defs>
</svg>
