<svg width="122" height="64" viewBox="0 0 122 64" fill="none" xmlns="http://www.w3.org/2000/svg">
<path fill-rule="evenodd" clip-rule="evenodd" d="M21.1659 38.6593C20.2038 38.6593 19.4504 39.3301 19.4504 40.309C19.4504 41.2885 20.2076 41.9554 21.1659 41.9554C22.1236 41.9554 22.8814 41.284 22.8814 40.309C22.8814 39.3301 22.1274 38.6593 21.1659 38.6593ZM21.1659 41.4837C20.4799 41.4837 19.971 40.9843 19.971 40.309C19.971 39.6343 20.476 39.131 21.1659 39.131C21.8475 39.131 22.3602 39.642 22.3602 40.309C22.3602 40.9721 21.8429 41.4837 21.1659 41.4837ZM37.8584 32.8893H29.5073L30.4566 18.4237L25.0334 32.8893H17.2784L29.583 0.192871H37.8345L36.882 14.8569L42.4081 0.192871H50.1636L37.8584 32.8893ZM38.8659 32.8893L51.1698 0.192871H58.9247L46.6208 32.8893H38.8659Z" fill="black"/>
<path fill-rule="evenodd" clip-rule="evenodd" d="M16.3842 21.6192C5.54746 34.3017 -4.67496 51.1767 4.35445 58.9476C13.1039 66.4781 24.0402 62.0195 31.497 59.0468C38.9538 56.0742 121.374 20.4051 121.374 20.4051C122.169 20.0088 122.021 19.5133 121.026 19.7607C120.625 19.8606 31.2985 43.9858 31.2985 43.9858C19.9632 47.1569 7.03857 40.2457 16.3842 21.6192Z" fill="black"/>
<path fill-rule="evenodd" clip-rule="evenodd" d="M21.4582 40.4247C21.6988 40.4131 21.887 40.2894 21.887 39.9576C21.887 39.5297 21.6063 39.4221 21.1375 39.4221H20.4637V41.1961H20.9131V40.4409H20.9888L21.3981 41.1961H21.9148L21.4582 40.4247ZM21.1699 40.1373H20.9138V39.7256H21.1298C21.2623 39.7256 21.4143 39.741 21.4143 39.9131C21.4143 40.0974 21.3263 40.1373 21.1699 40.1373ZM99.1212 0.0927734C98.1591 0.0927734 97.4058 0.764241 97.4058 1.74245C97.4058 2.7213 98.1636 3.38826 99.1212 3.38826C100.079 3.38826 100.837 2.71679 100.837 1.74245C100.837 0.764241 100.084 0.0927734 99.1212 0.0927734ZM99.1212 2.91784C98.4352 2.91784 97.9263 2.41843 97.9263 1.74309C97.9263 1.0684 98.4313 0.56512 99.1212 0.56512C99.8028 0.56512 100.316 1.07613 100.316 1.74309C100.316 2.40619 99.7989 2.91784 99.1212 2.91784Z" fill="black"/>
<path fill-rule="evenodd" clip-rule="evenodd" d="M99.4141 1.85866C99.6547 1.84706 99.8435 1.72333 99.8435 1.39146C99.8435 0.963579 99.5622 0.855963 99.094 0.855963H98.4203V2.62937H98.869V1.87477H98.9453L99.354 2.62937H99.8713L99.4141 1.85866ZM99.1251 1.57125H98.869V1.15948H99.0856C99.2176 1.15948 99.3702 1.17559 99.3702 1.34764C99.3702 1.5313 99.2816 1.57125 99.1251 1.57125ZM94.0116 5.6426L96.0957 0.192871H72.4332L64.3085 10.002L68.0595 0.192871H60.205L47.9994 32.8893H55.7543L60.9654 19.2163L61.3224 32.8893L85.1174 32.8377L87.3825 26.5484H78.3356L81.3081 18.6222H88.7643L91.0585 12.5287H83.6023L86.1584 5.6426H94.0116ZM69.0159 30.7093L68.5186 13.668L80.2438 0.838564L69.0159 30.7093Z" fill="black"/>
</svg>
