<svg width="146" height="23" viewBox="0 0 146 23" fill="none" xmlns="http://www.w3.org/2000/svg">
<g clip-path="url(#clip0_157_457)">
<path d="M30.4508 16.4802H23.8201C22.6962 16.4802 21.7972 15.5814 21.7972 14.4578C21.7972 13.3343 22.6962 12.4354 23.8201 12.4354H30.226H30.3384L30.4508 16.4802ZM28.5402 4.12109H20.4485V7.04235C20.8981 7.04235 27.4164 7.04235 28.5402 7.04235C29.6641 7.04235 30.5632 7.94119 30.5632 8.95239V9.62653H23.9325C21.2352 9.62653 19.0999 11.7613 19.0999 14.4578C19.0999 17.1544 21.2352 19.2891 23.9325 19.2891H33.3728V8.84004C33.3728 6.25585 31.2375 4.12109 28.5402 4.12109Z" fill="black"/>
<path d="M53.0401 4.00879C55.7374 4.00879 57.8727 6.14355 57.8727 8.84009V19.2892H54.9507V8.95245C54.9507 7.82889 54.0516 6.93004 52.9277 6.93004H47.8704V19.2892H44.9484V6.93004H40.2283C39.1044 6.93004 38.2053 7.82889 38.2053 8.95245V19.2892H35.2833V8.84009C35.2833 6.14355 37.4186 4.00879 40.1159 4.00879H53.0401Z" fill="black"/>
<path d="M64.0538 4.00879C61.9185 4.00879 60.1204 5.80648 60.1204 7.94124C60.1204 9.51423 61.1318 10.9749 62.5928 11.5366C70.235 13.8961 70.235 13.8961 70.235 13.8961C70.7969 14.1208 71.1341 14.5702 71.1341 15.132C71.1341 15.8062 70.5722 16.3679 69.8978 16.3679H60.1204V19.2892H69.8978C72.1455 19.2892 74.0561 17.3791 74.0561 15.132C74.0561 13.4467 73.0446 11.8737 71.4712 11.3119L68.2121 10.3007L63.7167 8.84009C63.2671 8.72773 63.0424 8.27831 63.0424 7.94124C63.0424 7.37946 63.4919 6.93004 64.0538 6.93004H72.4827V4.00879H64.0538Z" fill="black"/>
<path d="M99.4551 15.3567V11.4243V8.84009C99.4551 6.14355 101.59 4.00879 104.288 4.00879H109.233C111.93 4.00879 114.065 6.14355 114.065 8.84009V11.7613C114.065 11.7613 114.065 18.9521 114.065 19.1768H111.143C111.143 18.8398 111.143 8.84009 111.143 8.84009C111.143 7.71653 110.244 6.81769 109.12 6.81769H104.175C103.051 6.81769 102.152 7.71653 102.152 8.84009V19.1768H99.2303C99.5675 18.9521 99.4551 15.3567 99.4551 15.3567Z" fill="black"/>
<path d="M124.405 0.975098V3.89635C124.405 3.89635 128.675 3.89635 129.012 3.89635V6.8176H124.405V14.3454C124.405 15.469 125.304 16.3678 126.428 16.3678H130.473V19.2891H126.428C123.73 19.2891 121.595 17.1543 121.595 14.4578V11.5365C121.595 11.5365 121.595 2.54808 121.595 1.19981L124.405 0.975098Z" fill="black"/>
<path d="M119.333 3.89357L116.411 3.89893L116.439 19.1793L119.361 19.174L119.333 3.89357Z" fill="black"/>
<path d="M143.06 9.85086H134.969V8.83965C134.969 7.71609 135.868 6.81725 136.992 6.81725H141.15C142.274 6.81725 143.173 7.71609 143.173 8.83965L143.06 9.85086ZM145.87 8.7273C145.87 6.03076 143.735 3.896 141.037 3.896H136.879C134.182 3.896 132.047 6.03076 132.047 8.7273V14.2327C132.047 16.9293 134.182 19.064 136.879 19.064H144.409V16.1428H136.879C135.755 16.1428 134.856 15.2439 134.856 14.1204V12.5474C134.856 12.5474 145.533 12.5474 145.87 12.5474V8.7273Z" fill="black"/>
<path d="M12.5816 16.4801C13.593 16.4801 14.4921 15.5813 14.4921 14.5701C14.4921 13.7836 13.9302 12.9971 13.2559 12.7724L3.70318 9.85111C2.0174 9.17697 0.893555 7.49163 0.893555 5.69394C0.893555 3.22211 2.91648 1.19971 5.38895 1.19971H15.8407V4.12096H5.38895C4.60226 4.12096 3.81556 4.79509 3.81556 5.69394C3.81556 6.36808 4.2651 6.92985 4.82702 7.15457L9.65957 8.72755L14.2674 10.1882C16.0655 10.8623 17.3017 12.66 17.3017 14.5701C17.3017 17.1542 15.1664 19.4014 12.5816 19.4014H0.893555V16.4801H12.5816Z" fill="black"/>
<path d="M87.5423 17.1541C85.7441 19.0641 83.1593 19.8506 80.7992 19.5135C81.1363 20.0753 81.5859 20.7494 82.1478 21.1989C84.8451 23.6707 89.1157 23.5583 91.5881 20.8618C94.0606 18.1653 93.9482 13.8957 91.251 11.4239C90.6891 10.9745 90.1271 10.5251 89.4528 10.188C89.9024 12.6598 89.3404 15.244 87.5423 17.1541Z" fill="black"/>
<path d="M92.0377 10.6375C93.9482 12.4352 94.7349 15.0194 94.3978 17.3789C94.9597 17.0418 95.634 16.5924 96.0835 16.0306C98.556 13.3341 98.4436 9.06455 95.7464 6.59273C93.0492 4.00854 88.8909 4.23325 86.3061 6.92979C85.8565 7.49157 85.407 8.05335 85.0698 8.72749C87.5423 8.16571 90.1271 8.83984 92.0377 10.6375Z" fill="black"/>
<path d="M85.5194 6.03097C87.3176 4.12092 89.9024 3.33443 92.2625 3.6715C91.9254 3.10972 91.4758 2.43558 90.9139 1.98616C88.2166 -0.48567 83.946 -0.373314 81.4736 2.32323C79.0011 5.01977 79.1135 9.28929 81.8107 11.7611C82.3726 12.2105 82.9346 12.66 83.6089 12.997C83.0469 10.5252 83.7213 7.94102 85.5194 6.03097Z" fill="black"/>
<path d="M81.0241 12.6598C79.1135 10.8621 78.3268 8.27793 78.664 5.91846C78.102 6.25552 77.4277 6.70495 76.9782 7.26673C74.5057 9.96327 74.6181 14.2328 77.3154 16.7046C80.0126 19.1764 84.2832 19.0641 86.7557 16.3675C87.3176 15.8058 87.6548 15.244 87.9919 14.5699C85.5194 15.0193 82.9346 14.4575 81.0241 12.6598Z" fill="black"/>
</g>
<defs>
<clipPath id="clip0_157_457">
<rect width="144.976" height="22.7593" fill="white" transform="translate(0.893555 0.212891)"/>
</clipPath>
</defs>
</svg>
